<?xml version="1.0" encoding="utf-8" standalone="no"?>
<!DOCTYPE svg PUBLIC "-//W3C//DTD SVG 1.1//EN"
  "http://www.w3.org/Graphics/SVG/1.1/DTD/svg11.dtd">
<!-- Created with matplotlib (https://matplotlib.org/) -->
<svg height="360pt" version="1.1" viewBox="0 0 360 360" width="360pt" xmlns="http://www.w3.org/2000/svg" xmlns:xlink="http://www.w3.org/1999/xlink">
 <metadata>
  <rdf:RDF xmlns:cc="http://creativecommons.org/ns#" xmlns:dc="http://purl.org/dc/elements/1.1/" xmlns:rdf="http://www.w3.org/1999/02/22-rdf-syntax-ns#">
   <cc:Work>
    <dc:type rdf:resource="http://purl.org/dc/dcmitype/StillImage"/>
    <dc:date>2022-02-17T11:37:54.369578</dc:date>
    <dc:format>image/svg+xml</dc:format>
    <dc:creator>
     <cc:Agent>
      <dc:title>Matplotlib v3.3.1, https://matplotlib.org/</dc:title>
     </cc:Agent>
    </dc:creator>
   </cc:Work>
  </rdf:RDF>
 </metadata>
 <defs>
  <style type="text/css">*{stroke-linecap:butt;stroke-linejoin:round;}</style>
 </defs>
 <g id="figure_1">
  <g id="patch_1">
   <path d="M 0 360 
L 360 360 
L 360 0 
L 0 0 
z
" style="fill:#ffffff;"/>
  </g>
  <g id="axes_1">
   <g id="patch_2">
    <path d="M 45 320.4 
L 324 320.4 
L 324 43.2 
L 45 43.2 
z
" style="fill:#ffffff;"/>
   </g>
   <g id="patch_3">
    <path clip-path="url(#pe3ba84b29c)" d="M 57.681818 320.4 
L 57.872335 320.4 
L 57.872335 56.4 
L 57.681818 56.4 
z
" style="fill:#1e90ff;opacity:0.8;"/>
   </g>
   <g id="patch_4">
    <path clip-path="url(#pe3ba84b29c)" d="M 57.872335 320.4 
L 58.062852 320.4 
L 58.062852 320.4 
L 57.872335 320.4 
z
" style="fill:#1e90ff;opacity:0.8;"/>
   </g>
   <g id="patch_5">
    <path clip-path="url(#pe3ba84b29c)" d="M 58.062852 320.4 
L 58.253369 320.4 
L 58.253369 320.4 
L 58.062852 320.4 
z
" style="fill:#1e90ff;opacity:0.8;"/>
   </g>
   <g id="patch_6">
    <path clip-path="url(#pe3ba84b29c)" d="M 58.253369 320.4 
L 58.443886 320.4 
L 58.443886 320.4 
L 58.253369 320.4 
z
" style="fill:#1e90ff;opacity:0.8;"/>
   </g>
   <g id="patch_7">
    <path clip-path="url(#pe3ba84b29c)" d="M 58.443886 320.4 
L 58.634403 320.4 
L 58.634403 320.4 
L 58.443886 320.4 
z
" style="fill:#1e90ff;opacity:0.8;"/>
   </g>
   <g id="patch_8">
    <path clip-path="url(#pe3ba84b29c)" d="M 58.634403 320.4 
L 58.82492 320.4 
L 58.82492 320.4 
L 58.634403 320.4 
z
" style="fill:#1e90ff;opacity:0.8;"/>
   </g>
   <g id="patch_9">
    <path clip-path="url(#pe3ba84b29c)" d="M 58.82492 320.4 
L 59.015438 320.4 
L 59.015438 320.4 
L 58.82492 320.4 
z
" style="fill:#1e90ff;opacity:0.8;"/>
   </g>
   <g id="patch_10">
    <path clip-path="url(#pe3ba84b29c)" d="M 59.015438 320.4 
L 59.205955 320.4 
L 59.205955 320.4 
L 59.015438 320.4 
z
" style="fill:#1e90ff;opacity:0.8;"/>
   </g>
   <g id="patch_11">
    <path clip-path="url(#pe3ba84b29c)" d="M 59.205955 320.4 
L 59.396472 320.4 
L 59.396472 320.4 
L 59.205955 320.4 
z
" style="fill:#1e90ff;opacity:0.8;"/>
   </g>
   <g id="patch_12">
    <path clip-path="url(#pe3ba84b29c)" d="M 59.396472 320.4 
L 59.586989 320.4 
L 59.586989 320.4 
L 59.396472 320.4 
z
" style="fill:#1e90ff;opacity:0.8;"/>
   </g>
   <g id="patch_13">
    <path clip-path="url(#pe3ba84b29c)" d="M 59.586989 320.4 
L 59.777506 320.4 
L 59.777506 320.4 
L 59.586989 320.4 
z
" style="fill:#1e90ff;opacity:0.8;"/>
   </g>
   <g id="patch_14">
    <path clip-path="url(#pe3ba84b29c)" d="M 59.777506 320.4 
L 59.968023 320.4 
L 59.968023 320.4 
L 59.777506 320.4 
z
" style="fill:#1e90ff;opacity:0.8;"/>
   </g>
   <g id="patch_15">
    <path clip-path="url(#pe3ba84b29c)" d="M 59.968023 320.4 
L 60.15854 320.4 
L 60.15854 320.4 
L 59.968023 320.4 
z
" style="fill:#1e90ff;opacity:0.8;"/>
   </g>
   <g id="patch_16">
    <path clip-path="url(#pe3ba84b29c)" d="M 60.15854 320.4 
L 60.349057 320.4 
L 60.349057 320.4 
L 60.15854 320.4 
z
" style="fill:#1e90ff;opacity:0.8;"/>
   </g>
   <g id="patch_17">
    <path clip-path="url(#pe3ba84b29c)" d="M 60.349057 320.4 
L 60.539574 320.4 
L 60.539574 320.4 
L 60.349057 320.4 
z
" style="fill:#1e90ff;opacity:0.8;"/>
   </g>
   <g id="patch_18">
    <path clip-path="url(#pe3ba84b29c)" d="M 60.539574 320.4 
L 60.730091 320.4 
L 60.730091 320.4 
L 60.539574 320.4 
z
" style="fill:#1e90ff;opacity:0.8;"/>
   </g>
   <g id="patch_19">
    <path clip-path="url(#pe3ba84b29c)" d="M 60.730091 320.4 
L 60.920608 320.4 
L 60.920608 320.4 
L 60.730091 320.4 
z
" style="fill:#1e90ff;opacity:0.8;"/>
   </g>
   <g id="patch_20">
    <path clip-path="url(#pe3ba84b29c)" d="M 60.920608 320.4 
L 61.111125 320.4 
L 61.111125 320.4 
L 60.920608 320.4 
z
" style="fill:#1e90ff;opacity:0.8;"/>
   </g>
   <g id="patch_21">
    <path clip-path="url(#pe3ba84b29c)" d="M 61.111125 320.4 
L 61.301642 320.4 
L 61.301642 320.4 
L 61.111125 320.4 
z
" style="fill:#1e90ff;opacity:0.8;"/>
   </g>
   <g id="patch_22">
    <path clip-path="url(#pe3ba84b29c)" d="M 61.301642 320.4 
L 61.492159 320.4 
L 61.492159 320.4 
L 61.301642 320.4 
z
" style="fill:#1e90ff;opacity:0.8;"/>
   </g>
   <g id="patch_23">
    <path clip-path="url(#pe3ba84b29c)" d="M 61.492159 320.4 
L 61.682676 320.4 
L 61.682676 320.4 
L 61.492159 320.4 
z
" style="fill:#1e90ff;opacity:0.8;"/>
   </g>
   <g id="patch_24">
    <path clip-path="url(#pe3ba84b29c)" d="M 61.682676 320.4 
L 61.873193 320.4 
L 61.873193 320.4 
L 61.682676 320.4 
z
" style="fill:#1e90ff;opacity:0.8;"/>
   </g>
   <g id="patch_25">
    <path clip-path="url(#pe3ba84b29c)" d="M 61.873193 320.4 
L 62.06371 320.4 
L 62.06371 320.4 
L 61.873193 320.4 
z
" style="fill:#1e90ff;opacity:0.8;"/>
   </g>
   <g id="patch_26">
    <path clip-path="url(#pe3ba84b29c)" d="M 62.06371 320.4 
L 62.254227 320.4 
L 62.254227 320.4 
L 62.06371 320.4 
z
" style="fill:#1e90ff;opacity:0.8;"/>
   </g>
   <g id="patch_27">
    <path clip-path="url(#pe3ba84b29c)" d="M 62.254227 320.4 
L 62.444744 320.4 
L 62.444744 320.4 
L 62.254227 320.4 
z
" style="fill:#1e90ff;opacity:0.8;"/>
   </g>
   <g id="patch_28">
    <path clip-path="url(#pe3ba84b29c)" d="M 62.444744 320.4 
L 62.635261 320.4 
L 62.635261 320.4 
L 62.444744 320.4 
z
" style="fill:#1e90ff;opacity:0.8;"/>
   </g>
   <g id="patch_29">
    <path clip-path="url(#pe3ba84b29c)" d="M 62.635261 320.4 
L 62.825778 320.4 
L 62.825778 320.4 
L 62.635261 320.4 
z
" style="fill:#1e90ff;opacity:0.8;"/>
   </g>
   <g id="patch_30">
    <path clip-path="url(#pe3ba84b29c)" d="M 62.825778 320.4 
L 63.016295 320.4 
L 63.016295 320.4 
L 62.825778 320.4 
z
" style="fill:#1e90ff;opacity:0.8;"/>
   </g>
   <g id="patch_31">
    <path clip-path="url(#pe3ba84b29c)" d="M 63.016295 320.4 
L 63.206813 320.4 
L 63.206813 320.4 
L 63.016295 320.4 
z
" style="fill:#1e90ff;opacity:0.8;"/>
   </g>
   <g id="patch_32">
    <path clip-path="url(#pe3ba84b29c)" d="M 63.206813 320.4 
L 63.39733 320.4 
L 63.39733 320.4 
L 63.206813 320.4 
z
" style="fill:#1e90ff;opacity:0.8;"/>
   </g>
   <g id="patch_33">
    <path clip-path="url(#pe3ba84b29c)" d="M 63.39733 320.4 
L 63.587847 320.4 
L 63.587847 320.4 
L 63.39733 320.4 
z
" style="fill:#1e90ff;opacity:0.8;"/>
   </g>
   <g id="patch_34">
    <path clip-path="url(#pe3ba84b29c)" d="M 63.587847 320.4 
L 63.778364 320.4 
L 63.778364 320.4 
L 63.587847 320.4 
z
" style="fill:#1e90ff;opacity:0.8;"/>
   </g>
   <g id="patch_35">
    <path clip-path="url(#pe3ba84b29c)" d="M 63.778364 320.4 
L 63.968881 320.4 
L 63.968881 320.4 
L 63.778364 320.4 
z
" style="fill:#1e90ff;opacity:0.8;"/>
   </g>
   <g id="patch_36">
    <path clip-path="url(#pe3ba84b29c)" d="M 63.968881 320.4 
L 64.159398 320.4 
L 64.159398 320.4 
L 63.968881 320.4 
z
" style="fill:#1e90ff;opacity:0.8;"/>
   </g>
   <g id="patch_37">
    <path clip-path="url(#pe3ba84b29c)" d="M 64.159398 320.4 
L 64.349915 320.4 
L 64.349915 320.4 
L 64.159398 320.4 
z
" style="fill:#1e90ff;opacity:0.8;"/>
   </g>
   <g id="patch_38">
    <path clip-path="url(#pe3ba84b29c)" d="M 64.349915 320.4 
L 64.540432 320.4 
L 64.540432 320.4 
L 64.349915 320.4 
z
" style="fill:#1e90ff;opacity:0.8;"/>
   </g>
   <g id="patch_39">
    <path clip-path="url(#pe3ba84b29c)" d="M 64.540432 320.4 
L 64.730949 320.4 
L 64.730949 320.4 
L 64.540432 320.4 
z
" style="fill:#1e90ff;opacity:0.8;"/>
   </g>
   <g id="patch_40">
    <path clip-path="url(#pe3ba84b29c)" d="M 64.730949 320.4 
L 64.921466 320.4 
L 64.921466 320.4 
L 64.730949 320.4 
z
" style="fill:#1e90ff;opacity:0.8;"/>
   </g>
   <g id="patch_41">
    <path clip-path="url(#pe3ba84b29c)" d="M 64.921466 320.4 
L 65.111983 320.4 
L 65.111983 320.4 
L 64.921466 320.4 
z
" style="fill:#1e90ff;opacity:0.8;"/>
   </g>
   <g id="patch_42">
    <path clip-path="url(#pe3ba84b29c)" d="M 65.111983 320.4 
L 65.3025 320.4 
L 65.3025 320.4 
L 65.111983 320.4 
z
" style="fill:#1e90ff;opacity:0.8;"/>
   </g>
   <g id="patch_43">
    <path clip-path="url(#pe3ba84b29c)" d="M 65.3025 320.4 
L 65.493017 320.4 
L 65.493017 320.4 
L 65.3025 320.4 
z
" style="fill:#1e90ff;opacity:0.8;"/>
   </g>
   <g id="patch_44">
    <path clip-path="url(#pe3ba84b29c)" d="M 65.493017 320.4 
L 65.683534 320.4 
L 65.683534 320.4 
L 65.493017 320.4 
z
" style="fill:#1e90ff;opacity:0.8;"/>
   </g>
   <g id="patch_45">
    <path clip-path="url(#pe3ba84b29c)" d="M 65.683534 320.4 
L 65.874051 320.4 
L 65.874051 320.4 
L 65.683534 320.4 
z
" style="fill:#1e90ff;opacity:0.8;"/>
   </g>
   <g id="patch_46">
    <path clip-path="url(#pe3ba84b29c)" d="M 65.874051 320.4 
L 66.064568 320.4 
L 66.064568 320.4 
L 65.874051 320.4 
z
" style="fill:#1e90ff;opacity:0.8;"/>
   </g>
   <g id="patch_47">
    <path clip-path="url(#pe3ba84b29c)" d="M 66.064568 320.4 
L 66.255085 320.4 
L 66.255085 320.4 
L 66.064568 320.4 
z
" style="fill:#1e90ff;opacity:0.8;"/>
   </g>
   <g id="patch_48">
    <path clip-path="url(#pe3ba84b29c)" d="M 66.255085 320.4 
L 66.445602 320.4 
L 66.445602 320.4 
L 66.255085 320.4 
z
" style="fill:#1e90ff;opacity:0.8;"/>
   </g>
   <g id="patch_49">
    <path clip-path="url(#pe3ba84b29c)" d="M 66.445602 320.4 
L 66.636119 320.4 
L 66.636119 320.4 
L 66.445602 320.4 
z
" style="fill:#1e90ff;opacity:0.8;"/>
   </g>
   <g id="patch_50">
    <path clip-path="url(#pe3ba84b29c)" d="M 66.636119 320.4 
L 66.826636 320.4 
L 66.826636 320.4 
L 66.636119 320.4 
z
" style="fill:#1e90ff;opacity:0.8;"/>
   </g>
   <g id="patch_51">
    <path clip-path="url(#pe3ba84b29c)" d="M 66.826636 320.4 
L 67.017153 320.4 
L 67.017153 320.4 
L 66.826636 320.4 
z
" style="fill:#1e90ff;opacity:0.8;"/>
   </g>
   <g id="patch_52">
    <path clip-path="url(#pe3ba84b29c)" d="M 67.017153 320.4 
L 67.20767 320.4 
L 67.20767 320.4 
L 67.017153 320.4 
z
" style="fill:#1e90ff;opacity:0.8;"/>
   </g>
   <g id="patch_53">
    <path clip-path="url(#pe3ba84b29c)" d="M 67.20767 320.4 
L 67.398188 320.4 
L 67.398188 320.4 
L 67.20767 320.4 
z
" style="fill:#1e90ff;opacity:0.8;"/>
   </g>
   <g id="patch_54">
    <path clip-path="url(#pe3ba84b29c)" d="M 67.398188 320.4 
L 67.588705 320.4 
L 67.588705 320.4 
L 67.398188 320.4 
z
" style="fill:#1e90ff;opacity:0.8;"/>
   </g>
   <g id="patch_55">
    <path clip-path="url(#pe3ba84b29c)" d="M 67.588705 320.4 
L 67.779222 320.4 
L 67.779222 320.4 
L 67.588705 320.4 
z
" style="fill:#1e90ff;opacity:0.8;"/>
   </g>
   <g id="patch_56">
    <path clip-path="url(#pe3ba84b29c)" d="M 67.779222 320.4 
L 67.969739 320.4 
L 67.969739 320.4 
L 67.779222 320.4 
z
" style="fill:#1e90ff;opacity:0.8;"/>
   </g>
   <g id="patch_57">
    <path clip-path="url(#pe3ba84b29c)" d="M 67.969739 320.4 
L 68.160256 320.4 
L 68.160256 320.4 
L 67.969739 320.4 
z
" style="fill:#1e90ff;opacity:0.8;"/>
   </g>
   <g id="patch_58">
    <path clip-path="url(#pe3ba84b29c)" d="M 68.160256 320.4 
L 68.350773 320.4 
L 68.350773 320.4 
L 68.160256 320.4 
z
" style="fill:#1e90ff;opacity:0.8;"/>
   </g>
   <g id="patch_59">
    <path clip-path="url(#pe3ba84b29c)" d="M 68.350773 320.4 
L 68.54129 320.4 
L 68.54129 320.4 
L 68.350773 320.4 
z
" style="fill:#1e90ff;opacity:0.8;"/>
   </g>
   <g id="patch_60">
    <path clip-path="url(#pe3ba84b29c)" d="M 68.54129 320.4 
L 68.731807 320.4 
L 68.731807 320.4 
L 68.54129 320.4 
z
" style="fill:#1e90ff;opacity:0.8;"/>
   </g>
   <g id="patch_61">
    <path clip-path="url(#pe3ba84b29c)" d="M 68.731807 320.4 
L 68.922324 320.4 
L 68.922324 320.4 
L 68.731807 320.4 
z
" style="fill:#1e90ff;opacity:0.8;"/>
   </g>
   <g id="patch_62">
    <path clip-path="url(#pe3ba84b29c)" d="M 68.922324 320.4 
L 69.112841 320.4 
L 69.112841 320.4 
L 68.922324 320.4 
z
" style="fill:#1e90ff;opacity:0.8;"/>
   </g>
   <g id="patch_63">
    <path clip-path="url(#pe3ba84b29c)" d="M 69.112841 320.4 
L 69.303358 320.4 
L 69.303358 320.4 
L 69.112841 320.4 
z
" style="fill:#1e90ff;opacity:0.8;"/>
   </g>
   <g id="patch_64">
    <path clip-path="url(#pe3ba84b29c)" d="M 69.303358 320.4 
L 69.493875 320.4 
L 69.493875 320.4 
L 69.303358 320.4 
z
" style="fill:#1e90ff;opacity:0.8;"/>
   </g>
   <g id="patch_65">
    <path clip-path="url(#pe3ba84b29c)" d="M 69.493875 320.4 
L 69.684392 320.4 
L 69.684392 320.4 
L 69.493875 320.4 
z
" style="fill:#1e90ff;opacity:0.8;"/>
   </g>
   <g id="patch_66">
    <path clip-path="url(#pe3ba84b29c)" d="M 69.684392 320.4 
L 69.874909 320.4 
L 69.874909 320.4 
L 69.684392 320.4 
z
" style="fill:#1e90ff;opacity:0.8;"/>
   </g>
   <g id="patch_67">
    <path clip-path="url(#pe3ba84b29c)" d="M 69.874909 320.4 
L 70.065426 320.4 
L 70.065426 320.4 
L 69.874909 320.4 
z
" style="fill:#1e90ff;opacity:0.8;"/>
   </g>
   <g id="patch_68">
    <path clip-path="url(#pe3ba84b29c)" d="M 70.065426 320.4 
L 70.255943 320.4 
L 70.255943 320.4 
L 70.065426 320.4 
z
" style="fill:#1e90ff;opacity:0.8;"/>
   </g>
   <g id="patch_69">
    <path clip-path="url(#pe3ba84b29c)" d="M 70.255943 320.4 
L 70.44646 320.4 
L 70.44646 320.4 
L 70.255943 320.4 
z
" style="fill:#1e90ff;opacity:0.8;"/>
   </g>
   <g id="patch_70">
    <path clip-path="url(#pe3ba84b29c)" d="M 70.44646 320.4 
L 70.636977 320.4 
L 70.636977 320.4 
L 70.44646 320.4 
z
" style="fill:#1e90ff;opacity:0.8;"/>
   </g>
   <g id="patch_71">
    <path clip-path="url(#pe3ba84b29c)" d="M 70.636977 320.4 
L 70.827494 320.4 
L 70.827494 320.4 
L 70.636977 320.4 
z
" style="fill:#1e90ff;opacity:0.8;"/>
   </g>
   <g id="patch_72">
    <path clip-path="url(#pe3ba84b29c)" d="M 70.827494 320.4 
L 71.018011 320.4 
L 71.018011 320.4 
L 70.827494 320.4 
z
" style="fill:#1e90ff;opacity:0.8;"/>
   </g>
   <g id="patch_73">
    <path clip-path="url(#pe3ba84b29c)" d="M 71.018011 320.4 
L 71.208528 320.4 
L 71.208528 320.4 
L 71.018011 320.4 
z
" style="fill:#1e90ff;opacity:0.8;"/>
   </g>
   <g id="patch_74">
    <path clip-path="url(#pe3ba84b29c)" d="M 71.208528 320.4 
L 71.399046 320.4 
L 71.399046 320.4 
L 71.208528 320.4 
z
" style="fill:#1e90ff;opacity:0.8;"/>
   </g>
   <g id="patch_75">
    <path clip-path="url(#pe3ba84b29c)" d="M 71.399046 320.4 
L 71.589563 320.4 
L 71.589563 320.4 
L 71.399046 320.4 
z
" style="fill:#1e90ff;opacity:0.8;"/>
   </g>
   <g id="patch_76">
    <path clip-path="url(#pe3ba84b29c)" d="M 71.589563 320.4 
L 71.78008 320.4 
L 71.78008 320.4 
L 71.589563 320.4 
z
" style="fill:#1e90ff;opacity:0.8;"/>
   </g>
   <g id="patch_77">
    <path clip-path="url(#pe3ba84b29c)" d="M 71.78008 320.4 
L 71.970597 320.4 
L 71.970597 320.4 
L 71.78008 320.4 
z
" style="fill:#1e90ff;opacity:0.8;"/>
   </g>
   <g id="patch_78">
    <path clip-path="url(#pe3ba84b29c)" d="M 71.970597 320.4 
L 72.161114 320.4 
L 72.161114 320.4 
L 71.970597 320.4 
z
" style="fill:#1e90ff;opacity:0.8;"/>
   </g>
   <g id="patch_79">
    <path clip-path="url(#pe3ba84b29c)" d="M 72.161114 320.4 
L 72.351631 320.4 
L 72.351631 320.4 
L 72.161114 320.4 
z
" style="fill:#1e90ff;opacity:0.8;"/>
   </g>
   <g id="patch_80">
    <path clip-path="url(#pe3ba84b29c)" d="M 72.351631 320.4 
L 72.542148 320.4 
L 72.542148 320.4 
L 72.351631 320.4 
z
" style="fill:#1e90ff;opacity:0.8;"/>
   </g>
   <g id="patch_81">
    <path clip-path="url(#pe3ba84b29c)" d="M 72.542148 320.4 
L 72.732665 320.4 
L 72.732665 320.4 
L 72.542148 320.4 
z
" style="fill:#1e90ff;opacity:0.8;"/>
   </g>
   <g id="patch_82">
    <path clip-path="url(#pe3ba84b29c)" d="M 72.732665 320.4 
L 72.923182 320.4 
L 72.923182 320.4 
L 72.732665 320.4 
z
" style="fill:#1e90ff;opacity:0.8;"/>
   </g>
   <g id="patch_83">
    <path clip-path="url(#pe3ba84b29c)" d="M 72.923182 320.4 
L 73.113699 320.4 
L 73.113699 320.4 
L 72.923182 320.4 
z
" style="fill:#1e90ff;opacity:0.8;"/>
   </g>
   <g id="patch_84">
    <path clip-path="url(#pe3ba84b29c)" d="M 73.113699 320.4 
L 73.304216 320.4 
L 73.304216 320.4 
L 73.113699 320.4 
z
" style="fill:#1e90ff;opacity:0.8;"/>
   </g>
   <g id="patch_85">
    <path clip-path="url(#pe3ba84b29c)" d="M 73.304216 320.4 
L 73.494733 320.4 
L 73.494733 320.4 
L 73.304216 320.4 
z
" style="fill:#1e90ff;opacity:0.8;"/>
   </g>
   <g id="patch_86">
    <path clip-path="url(#pe3ba84b29c)" d="M 73.494733 320.4 
L 73.68525 320.4 
L 73.68525 320.4 
L 73.494733 320.4 
z
" style="fill:#1e90ff;opacity:0.8;"/>
   </g>
   <g id="patch_87">
    <path clip-path="url(#pe3ba84b29c)" d="M 73.68525 320.4 
L 73.875767 320.4 
L 73.875767 320.4 
L 73.68525 320.4 
z
" style="fill:#1e90ff;opacity:0.8;"/>
   </g>
   <g id="patch_88">
    <path clip-path="url(#pe3ba84b29c)" d="M 73.875767 320.4 
L 74.066284 320.4 
L 74.066284 320.4 
L 73.875767 320.4 
z
" style="fill:#1e90ff;opacity:0.8;"/>
   </g>
   <g id="patch_89">
    <path clip-path="url(#pe3ba84b29c)" d="M 74.066284 320.4 
L 74.256801 320.4 
L 74.256801 320.4 
L 74.066284 320.4 
z
" style="fill:#1e90ff;opacity:0.8;"/>
   </g>
   <g id="patch_90">
    <path clip-path="url(#pe3ba84b29c)" d="M 74.256801 320.4 
L 74.447318 320.4 
L 74.447318 320.4 
L 74.256801 320.4 
z
" style="fill:#1e90ff;opacity:0.8;"/>
   </g>
   <g id="patch_91">
    <path clip-path="url(#pe3ba84b29c)" d="M 74.447318 320.4 
L 74.637835 320.4 
L 74.637835 320.4 
L 74.447318 320.4 
z
" style="fill:#1e90ff;opacity:0.8;"/>
   </g>
   <g id="patch_92">
    <path clip-path="url(#pe3ba84b29c)" d="M 74.637835 320.4 
L 74.828352 320.4 
L 74.828352 320.4 
L 74.637835 320.4 
z
" style="fill:#1e90ff;opacity:0.8;"/>
   </g>
   <g id="patch_93">
    <path clip-path="url(#pe3ba84b29c)" d="M 74.828352 320.4 
L 75.018869 320.4 
L 75.018869 320.4 
L 74.828352 320.4 
z
" style="fill:#1e90ff;opacity:0.8;"/>
   </g>
   <g id="patch_94">
    <path clip-path="url(#pe3ba84b29c)" d="M 75.018869 320.4 
L 75.209386 320.4 
L 75.209386 320.4 
L 75.018869 320.4 
z
" style="fill:#1e90ff;opacity:0.8;"/>
   </g>
   <g id="patch_95">
    <path clip-path="url(#pe3ba84b29c)" d="M 75.209386 320.4 
L 75.399903 320.4 
L 75.399903 320.4 
L 75.209386 320.4 
z
" style="fill:#1e90ff;opacity:0.8;"/>
   </g>
   <g id="patch_96">
    <path clip-path="url(#pe3ba84b29c)" d="M 75.399903 320.4 
L 75.590421 320.4 
L 75.590421 320.4 
L 75.399903 320.4 
z
" style="fill:#1e90ff;opacity:0.8;"/>
   </g>
   <g id="patch_97">
    <path clip-path="url(#pe3ba84b29c)" d="M 75.590421 320.4 
L 75.780938 320.4 
L 75.780938 320.4 
L 75.590421 320.4 
z
" style="fill:#1e90ff;opacity:0.8;"/>
   </g>
   <g id="patch_98">
    <path clip-path="url(#pe3ba84b29c)" d="M 75.780938 320.4 
L 75.971455 320.4 
L 75.971455 320.4 
L 75.780938 320.4 
z
" style="fill:#1e90ff;opacity:0.8;"/>
   </g>
   <g id="patch_99">
    <path clip-path="url(#pe3ba84b29c)" d="M 75.971455 320.4 
L 76.161972 320.4 
L 76.161972 320.4 
L 75.971455 320.4 
z
" style="fill:#1e90ff;opacity:0.8;"/>
   </g>
   <g id="patch_100">
    <path clip-path="url(#pe3ba84b29c)" d="M 76.161972 320.4 
L 76.352489 320.4 
L 76.352489 320.4 
L 76.161972 320.4 
z
" style="fill:#1e90ff;opacity:0.8;"/>
   </g>
   <g id="patch_101">
    <path clip-path="url(#pe3ba84b29c)" d="M 76.352489 320.4 
L 76.543006 320.4 
L 76.543006 320.4 
L 76.352489 320.4 
z
" style="fill:#1e90ff;opacity:0.8;"/>
   </g>
   <g id="patch_102">
    <path clip-path="url(#pe3ba84b29c)" d="M 76.543006 320.4 
L 76.733523 320.4 
L 76.733523 320.4 
L 76.543006 320.4 
z
" style="fill:#1e90ff;opacity:0.8;"/>
   </g>
   <g id="patch_103">
    <path clip-path="url(#pe3ba84b29c)" d="M 76.733523 320.4 
L 76.92404 320.4 
L 76.92404 320.4 
L 76.733523 320.4 
z
" style="fill:#1e90ff;opacity:0.8;"/>
   </g>
   <g id="patch_104">
    <path clip-path="url(#pe3ba84b29c)" d="M 76.92404 320.4 
L 77.114557 320.4 
L 77.114557 320.4 
L 76.92404 320.4 
z
" style="fill:#1e90ff;opacity:0.8;"/>
   </g>
   <g id="patch_105">
    <path clip-path="url(#pe3ba84b29c)" d="M 77.114557 320.4 
L 77.305074 320.4 
L 77.305074 320.4 
L 77.114557 320.4 
z
" style="fill:#1e90ff;opacity:0.8;"/>
   </g>
   <g id="patch_106">
    <path clip-path="url(#pe3ba84b29c)" d="M 77.305074 320.4 
L 77.495591 320.4 
L 77.495591 320.4 
L 77.305074 320.4 
z
" style="fill:#1e90ff;opacity:0.8;"/>
   </g>
   <g id="patch_107">
    <path clip-path="url(#pe3ba84b29c)" d="M 77.495591 320.4 
L 77.686108 320.4 
L 77.686108 320.4 
L 77.495591 320.4 
z
" style="fill:#1e90ff;opacity:0.8;"/>
   </g>
   <g id="patch_108">
    <path clip-path="url(#pe3ba84b29c)" d="M 77.686108 320.4 
L 77.876625 320.4 
L 77.876625 320.4 
L 77.686108 320.4 
z
" style="fill:#1e90ff;opacity:0.8;"/>
   </g>
   <g id="patch_109">
    <path clip-path="url(#pe3ba84b29c)" d="M 77.876625 320.4 
L 78.067142 320.4 
L 78.067142 320.4 
L 77.876625 320.4 
z
" style="fill:#1e90ff;opacity:0.8;"/>
   </g>
   <g id="patch_110">
    <path clip-path="url(#pe3ba84b29c)" d="M 78.067142 320.4 
L 78.257659 320.4 
L 78.257659 320.4 
L 78.067142 320.4 
z
" style="fill:#1e90ff;opacity:0.8;"/>
   </g>
   <g id="patch_111">
    <path clip-path="url(#pe3ba84b29c)" d="M 78.257659 320.4 
L 78.448176 320.4 
L 78.448176 320.4 
L 78.257659 320.4 
z
" style="fill:#1e90ff;opacity:0.8;"/>
   </g>
   <g id="patch_112">
    <path clip-path="url(#pe3ba84b29c)" d="M 78.448176 320.4 
L 78.638693 320.4 
L 78.638693 320.4 
L 78.448176 320.4 
z
" style="fill:#1e90ff;opacity:0.8;"/>
   </g>
   <g id="patch_113">
    <path clip-path="url(#pe3ba84b29c)" d="M 78.638693 320.4 
L 78.82921 320.4 
L 78.82921 320.4 
L 78.638693 320.4 
z
" style="fill:#1e90ff;opacity:0.8;"/>
   </g>
   <g id="patch_114">
    <path clip-path="url(#pe3ba84b29c)" d="M 78.82921 320.4 
L 79.019727 320.4 
L 79.019727 320.4 
L 78.82921 320.4 
z
" style="fill:#1e90ff;opacity:0.8;"/>
   </g>
   <g id="patch_115">
    <path clip-path="url(#pe3ba84b29c)" d="M 79.019727 320.4 
L 79.210244 320.4 
L 79.210244 320.4 
L 79.019727 320.4 
z
" style="fill:#1e90ff;opacity:0.8;"/>
   </g>
   <g id="patch_116">
    <path clip-path="url(#pe3ba84b29c)" d="M 79.210244 320.4 
L 79.400761 320.4 
L 79.400761 320.4 
L 79.210244 320.4 
z
" style="fill:#1e90ff;opacity:0.8;"/>
   </g>
   <g id="patch_117">
    <path clip-path="url(#pe3ba84b29c)" d="M 79.400761 320.4 
L 79.591279 320.4 
L 79.591279 320.4 
L 79.400761 320.4 
z
" style="fill:#1e90ff;opacity:0.8;"/>
   </g>
   <g id="patch_118">
    <path clip-path="url(#pe3ba84b29c)" d="M 79.591279 320.4 
L 79.781796 320.4 
L 79.781796 320.4 
L 79.591279 320.4 
z
" style="fill:#1e90ff;opacity:0.8;"/>
   </g>
   <g id="patch_119">
    <path clip-path="url(#pe3ba84b29c)" d="M 79.781796 320.4 
L 79.972313 320.4 
L 79.972313 320.4 
L 79.781796 320.4 
z
" style="fill:#1e90ff;opacity:0.8;"/>
   </g>
   <g id="patch_120">
    <path clip-path="url(#pe3ba84b29c)" d="M 79.972313 320.4 
L 80.16283 320.4 
L 80.16283 320.4 
L 79.972313 320.4 
z
" style="fill:#1e90ff;opacity:0.8;"/>
   </g>
   <g id="patch_121">
    <path clip-path="url(#pe3ba84b29c)" d="M 80.16283 320.4 
L 80.353347 320.4 
L 80.353347 320.4 
L 80.16283 320.4 
z
" style="fill:#1e90ff;opacity:0.8;"/>
   </g>
   <g id="patch_122">
    <path clip-path="url(#pe3ba84b29c)" d="M 80.353347 320.4 
L 80.543864 320.4 
L 80.543864 320.4 
L 80.353347 320.4 
z
" style="fill:#1e90ff;opacity:0.8;"/>
   </g>
   <g id="patch_123">
    <path clip-path="url(#pe3ba84b29c)" d="M 80.543864 320.4 
L 80.734381 320.4 
L 80.734381 320.4 
L 80.543864 320.4 
z
" style="fill:#1e90ff;opacity:0.8;"/>
   </g>
   <g id="patch_124">
    <path clip-path="url(#pe3ba84b29c)" d="M 80.734381 320.4 
L 80.924898 320.4 
L 80.924898 320.4 
L 80.734381 320.4 
z
" style="fill:#1e90ff;opacity:0.8;"/>
   </g>
   <g id="patch_125">
    <path clip-path="url(#pe3ba84b29c)" d="M 80.924898 320.4 
L 81.115415 320.4 
L 81.115415 320.4 
L 80.924898 320.4 
z
" style="fill:#1e90ff;opacity:0.8;"/>
   </g>
   <g id="patch_126">
    <path clip-path="url(#pe3ba84b29c)" d="M 81.115415 320.4 
L 81.305932 320.4 
L 81.305932 320.4 
L 81.115415 320.4 
z
" style="fill:#1e90ff;opacity:0.8;"/>
   </g>
   <g id="patch_127">
    <path clip-path="url(#pe3ba84b29c)" d="M 81.305932 320.4 
L 81.496449 320.4 
L 81.496449 320.4 
L 81.305932 320.4 
z
" style="fill:#1e90ff;opacity:0.8;"/>
   </g>
   <g id="patch_128">
    <path clip-path="url(#pe3ba84b29c)" d="M 81.496449 320.4 
L 81.686966 320.4 
L 81.686966 320.4 
L 81.496449 320.4 
z
" style="fill:#1e90ff;opacity:0.8;"/>
   </g>
   <g id="patch_129">
    <path clip-path="url(#pe3ba84b29c)" d="M 81.686966 320.4 
L 81.877483 320.4 
L 81.877483 320.4 
L 81.686966 320.4 
z
" style="fill:#1e90ff;opacity:0.8;"/>
   </g>
   <g id="patch_130">
    <path clip-path="url(#pe3ba84b29c)" d="M 81.877483 320.4 
L 82.068 320.4 
L 82.068 320.4 
L 81.877483 320.4 
z
" style="fill:#1e90ff;opacity:0.8;"/>
   </g>
   <g id="patch_131">
    <path clip-path="url(#pe3ba84b29c)" d="M 82.068 320.4 
L 82.258517 320.4 
L 82.258517 320.4 
L 82.068 320.4 
z
" style="fill:#1e90ff;opacity:0.8;"/>
   </g>
   <g id="patch_132">
    <path clip-path="url(#pe3ba84b29c)" d="M 82.258517 320.4 
L 82.449034 320.4 
L 82.449034 320.4 
L 82.258517 320.4 
z
" style="fill:#1e90ff;opacity:0.8;"/>
   </g>
   <g id="patch_133">
    <path clip-path="url(#pe3ba84b29c)" d="M 82.449034 320.4 
L 82.639551 320.4 
L 82.639551 320.4 
L 82.449034 320.4 
z
" style="fill:#1e90ff;opacity:0.8;"/>
   </g>
   <g id="patch_134">
    <path clip-path="url(#pe3ba84b29c)" d="M 82.639551 320.4 
L 82.830068 320.4 
L 82.830068 320.4 
L 82.639551 320.4 
z
" style="fill:#1e90ff;opacity:0.8;"/>
   </g>
   <g id="patch_135">
    <path clip-path="url(#pe3ba84b29c)" d="M 82.830068 320.4 
L 83.020585 320.4 
L 83.020585 320.4 
L 82.830068 320.4 
z
" style="fill:#1e90ff;opacity:0.8;"/>
   </g>
   <g id="patch_136">
    <path clip-path="url(#pe3ba84b29c)" d="M 83.020585 320.4 
L 83.211102 320.4 
L 83.211102 320.4 
L 83.020585 320.4 
z
" style="fill:#1e90ff;opacity:0.8;"/>
   </g>
   <g id="patch_137">
    <path clip-path="url(#pe3ba84b29c)" d="M 83.211102 320.4 
L 83.401619 320.4 
L 83.401619 320.4 
L 83.211102 320.4 
z
" style="fill:#1e90ff;opacity:0.8;"/>
   </g>
   <g id="patch_138">
    <path clip-path="url(#pe3ba84b29c)" d="M 83.401619 320.4 
L 83.592136 320.4 
L 83.592136 320.4 
L 83.401619 320.4 
z
" style="fill:#1e90ff;opacity:0.8;"/>
   </g>
   <g id="patch_139">
    <path clip-path="url(#pe3ba84b29c)" d="M 83.592136 320.4 
L 83.782654 320.4 
L 83.782654 320.4 
L 83.592136 320.4 
z
" style="fill:#1e90ff;opacity:0.8;"/>
   </g>
   <g id="patch_140">
    <path clip-path="url(#pe3ba84b29c)" d="M 83.782654 320.4 
L 83.973171 320.4 
L 83.973171 320.4 
L 83.782654 320.4 
z
" style="fill:#1e90ff;opacity:0.8;"/>
   </g>
   <g id="patch_141">
    <path clip-path="url(#pe3ba84b29c)" d="M 83.973171 320.4 
L 84.163688 320.4 
L 84.163688 320.4 
L 83.973171 320.4 
z
" style="fill:#1e90ff;opacity:0.8;"/>
   </g>
   <g id="patch_142">
    <path clip-path="url(#pe3ba84b29c)" d="M 84.163688 320.4 
L 84.354205 320.4 
L 84.354205 320.4 
L 84.163688 320.4 
z
" style="fill:#1e90ff;opacity:0.8;"/>
   </g>
   <g id="patch_143">
    <path clip-path="url(#pe3ba84b29c)" d="M 84.354205 320.4 
L 84.544722 320.4 
L 84.544722 320.4 
L 84.354205 320.4 
z
" style="fill:#1e90ff;opacity:0.8;"/>
   </g>
   <g id="patch_144">
    <path clip-path="url(#pe3ba84b29c)" d="M 84.544722 320.4 
L 84.735239 320.4 
L 84.735239 320.4 
L 84.544722 320.4 
z
" style="fill:#1e90ff;opacity:0.8;"/>
   </g>
   <g id="patch_145">
    <path clip-path="url(#pe3ba84b29c)" d="M 84.735239 320.4 
L 84.925756 320.4 
L 84.925756 320.4 
L 84.735239 320.4 
z
" style="fill:#1e90ff;opacity:0.8;"/>
   </g>
   <g id="patch_146">
    <path clip-path="url(#pe3ba84b29c)" d="M 84.925756 320.4 
L 85.116273 320.4 
L 85.116273 320.4 
L 84.925756 320.4 
z
" style="fill:#1e90ff;opacity:0.8;"/>
   </g>
   <g id="patch_147">
    <path clip-path="url(#pe3ba84b29c)" d="M 85.116273 320.4 
L 85.30679 320.4 
L 85.30679 320.4 
L 85.116273 320.4 
z
" style="fill:#1e90ff;opacity:0.8;"/>
   </g>
   <g id="patch_148">
    <path clip-path="url(#pe3ba84b29c)" d="M 85.30679 320.4 
L 85.497307 320.4 
L 85.497307 320.4 
L 85.30679 320.4 
z
" style="fill:#1e90ff;opacity:0.8;"/>
   </g>
   <g id="patch_149">
    <path clip-path="url(#pe3ba84b29c)" d="M 85.497307 320.4 
L 85.687824 320.4 
L 85.687824 320.4 
L 85.497307 320.4 
z
" style="fill:#1e90ff;opacity:0.8;"/>
   </g>
   <g id="patch_150">
    <path clip-path="url(#pe3ba84b29c)" d="M 85.687824 320.4 
L 85.878341 320.4 
L 85.878341 320.4 
L 85.687824 320.4 
z
" style="fill:#1e90ff;opacity:0.8;"/>
   </g>
   <g id="patch_151">
    <path clip-path="url(#pe3ba84b29c)" d="M 85.878341 320.4 
L 86.068858 320.4 
L 86.068858 320.4 
L 85.878341 320.4 
z
" style="fill:#1e90ff;opacity:0.8;"/>
   </g>
   <g id="patch_152">
    <path clip-path="url(#pe3ba84b29c)" d="M 86.068858 320.4 
L 86.259375 320.4 
L 86.259375 320.4 
L 86.068858 320.4 
z
" style="fill:#1e90ff;opacity:0.8;"/>
   </g>
   <g id="patch_153">
    <path clip-path="url(#pe3ba84b29c)" d="M 86.259375 320.4 
L 86.449892 320.4 
L 86.449892 320.4 
L 86.259375 320.4 
z
" style="fill:#1e90ff;opacity:0.8;"/>
   </g>
   <g id="patch_154">
    <path clip-path="url(#pe3ba84b29c)" d="M 86.449892 320.4 
L 86.640409 320.4 
L 86.640409 320.4 
L 86.449892 320.4 
z
" style="fill:#1e90ff;opacity:0.8;"/>
   </g>
   <g id="patch_155">
    <path clip-path="url(#pe3ba84b29c)" d="M 86.640409 320.4 
L 86.830926 320.4 
L 86.830926 320.4 
L 86.640409 320.4 
z
" style="fill:#1e90ff;opacity:0.8;"/>
   </g>
   <g id="patch_156">
    <path clip-path="url(#pe3ba84b29c)" d="M 86.830926 320.4 
L 87.021443 320.4 
L 87.021443 320.4 
L 86.830926 320.4 
z
" style="fill:#1e90ff;opacity:0.8;"/>
   </g>
   <g id="patch_157">
    <path clip-path="url(#pe3ba84b29c)" d="M 87.021443 320.4 
L 87.21196 320.4 
L 87.21196 320.4 
L 87.021443 320.4 
z
" style="fill:#1e90ff;opacity:0.8;"/>
   </g>
   <g id="patch_158">
    <path clip-path="url(#pe3ba84b29c)" d="M 87.21196 320.4 
L 87.402477 320.4 
L 87.402477 320.4 
L 87.21196 320.4 
z
" style="fill:#1e90ff;opacity:0.8;"/>
   </g>
   <g id="patch_159">
    <path clip-path="url(#pe3ba84b29c)" d="M 87.402477 320.4 
L 87.592994 320.4 
L 87.592994 320.4 
L 87.402477 320.4 
z
" style="fill:#1e90ff;opacity:0.8;"/>
   </g>
   <g id="patch_160">
    <path clip-path="url(#pe3ba84b29c)" d="M 87.592994 320.4 
L 87.783511 320.4 
L 87.783511 320.4 
L 87.592994 320.4 
z
" style="fill:#1e90ff;opacity:0.8;"/>
   </g>
   <g id="patch_161">
    <path clip-path="url(#pe3ba84b29c)" d="M 87.783511 320.4 
L 87.974029 320.4 
L 87.974029 320.4 
L 87.783511 320.4 
z
" style="fill:#1e90ff;opacity:0.8;"/>
   </g>
   <g id="patch_162">
    <path clip-path="url(#pe3ba84b29c)" d="M 87.974029 320.4 
L 88.164546 320.4 
L 88.164546 320.4 
L 87.974029 320.4 
z
" style="fill:#1e90ff;opacity:0.8;"/>
   </g>
   <g id="patch_163">
    <path clip-path="url(#pe3ba84b29c)" d="M 88.164546 320.4 
L 88.355063 320.4 
L 88.355063 320.4 
L 88.164546 320.4 
z
" style="fill:#1e90ff;opacity:0.8;"/>
   </g>
   <g id="patch_164">
    <path clip-path="url(#pe3ba84b29c)" d="M 88.355063 320.4 
L 88.54558 320.4 
L 88.54558 320.4 
L 88.355063 320.4 
z
" style="fill:#1e90ff;opacity:0.8;"/>
   </g>
   <g id="patch_165">
    <path clip-path="url(#pe3ba84b29c)" d="M 88.54558 320.4 
L 88.736097 320.4 
L 88.736097 320.4 
L 88.54558 320.4 
z
" style="fill:#1e90ff;opacity:0.8;"/>
   </g>
   <g id="patch_166">
    <path clip-path="url(#pe3ba84b29c)" d="M 88.736097 320.4 
L 88.926614 320.4 
L 88.926614 320.4 
L 88.736097 320.4 
z
" style="fill:#1e90ff;opacity:0.8;"/>
   </g>
   <g id="patch_167">
    <path clip-path="url(#pe3ba84b29c)" d="M 88.926614 320.4 
L 89.117131 320.4 
L 89.117131 320.4 
L 88.926614 320.4 
z
" style="fill:#1e90ff;opacity:0.8;"/>
   </g>
   <g id="patch_168">
    <path clip-path="url(#pe3ba84b29c)" d="M 89.117131 320.4 
L 89.307648 320.4 
L 89.307648 320.4 
L 89.117131 320.4 
z
" style="fill:#1e90ff;opacity:0.8;"/>
   </g>
   <g id="patch_169">
    <path clip-path="url(#pe3ba84b29c)" d="M 89.307648 320.4 
L 89.498165 320.4 
L 89.498165 320.4 
L 89.307648 320.4 
z
" style="fill:#1e90ff;opacity:0.8;"/>
   </g>
   <g id="patch_170">
    <path clip-path="url(#pe3ba84b29c)" d="M 89.498165 320.4 
L 89.688682 320.4 
L 89.688682 320.4 
L 89.498165 320.4 
z
" style="fill:#1e90ff;opacity:0.8;"/>
   </g>
   <g id="patch_171">
    <path clip-path="url(#pe3ba84b29c)" d="M 89.688682 320.4 
L 89.879199 320.4 
L 89.879199 320.4 
L 89.688682 320.4 
z
" style="fill:#1e90ff;opacity:0.8;"/>
   </g>
   <g id="patch_172">
    <path clip-path="url(#pe3ba84b29c)" d="M 89.879199 320.4 
L 90.069716 320.4 
L 90.069716 320.4 
L 89.879199 320.4 
z
" style="fill:#1e90ff;opacity:0.8;"/>
   </g>
   <g id="patch_173">
    <path clip-path="url(#pe3ba84b29c)" d="M 90.069716 320.4 
L 90.260233 320.4 
L 90.260233 320.4 
L 90.069716 320.4 
z
" style="fill:#1e90ff;opacity:0.8;"/>
   </g>
   <g id="patch_174">
    <path clip-path="url(#pe3ba84b29c)" d="M 90.260233 320.4 
L 90.45075 320.4 
L 90.45075 320.4 
L 90.260233 320.4 
z
" style="fill:#1e90ff;opacity:0.8;"/>
   </g>
   <g id="patch_175">
    <path clip-path="url(#pe3ba84b29c)" d="M 90.45075 320.4 
L 90.641267 320.4 
L 90.641267 320.4 
L 90.45075 320.4 
z
" style="fill:#1e90ff;opacity:0.8;"/>
   </g>
   <g id="patch_176">
    <path clip-path="url(#pe3ba84b29c)" d="M 90.641267 320.4 
L 90.831784 320.4 
L 90.831784 320.4 
L 90.641267 320.4 
z
" style="fill:#1e90ff;opacity:0.8;"/>
   </g>
   <g id="patch_177">
    <path clip-path="url(#pe3ba84b29c)" d="M 90.831784 320.4 
L 91.022301 320.4 
L 91.022301 320.4 
L 90.831784 320.4 
z
" style="fill:#1e90ff;opacity:0.8;"/>
   </g>
   <g id="patch_178">
    <path clip-path="url(#pe3ba84b29c)" d="M 91.022301 320.4 
L 91.212818 320.4 
L 91.212818 320.4 
L 91.022301 320.4 
z
" style="fill:#1e90ff;opacity:0.8;"/>
   </g>
   <g id="patch_179">
    <path clip-path="url(#pe3ba84b29c)" d="M 91.212818 320.4 
L 91.403335 320.4 
L 91.403335 320.4 
L 91.212818 320.4 
z
" style="fill:#1e90ff;opacity:0.8;"/>
   </g>
   <g id="patch_180">
    <path clip-path="url(#pe3ba84b29c)" d="M 91.403335 320.4 
L 91.593852 320.4 
L 91.593852 320.4 
L 91.403335 320.4 
z
" style="fill:#1e90ff;opacity:0.8;"/>
   </g>
   <g id="patch_181">
    <path clip-path="url(#pe3ba84b29c)" d="M 91.593852 320.4 
L 91.784369 320.4 
L 91.784369 320.4 
L 91.593852 320.4 
z
" style="fill:#1e90ff;opacity:0.8;"/>
   </g>
   <g id="patch_182">
    <path clip-path="url(#pe3ba84b29c)" d="M 91.784369 320.4 
L 91.974887 320.4 
L 91.974887 320.4 
L 91.784369 320.4 
z
" style="fill:#1e90ff;opacity:0.8;"/>
   </g>
   <g id="patch_183">
    <path clip-path="url(#pe3ba84b29c)" d="M 91.974887 320.4 
L 92.165404 320.4 
L 92.165404 320.4 
L 91.974887 320.4 
z
" style="fill:#1e90ff;opacity:0.8;"/>
   </g>
   <g id="patch_184">
    <path clip-path="url(#pe3ba84b29c)" d="M 92.165404 320.4 
L 92.355921 320.4 
L 92.355921 320.4 
L 92.165404 320.4 
z
" style="fill:#1e90ff;opacity:0.8;"/>
   </g>
   <g id="patch_185">
    <path clip-path="url(#pe3ba84b29c)" d="M 92.355921 320.4 
L 92.546438 320.4 
L 92.546438 320.4 
L 92.355921 320.4 
z
" style="fill:#1e90ff;opacity:0.8;"/>
   </g>
   <g id="patch_186">
    <path clip-path="url(#pe3ba84b29c)" d="M 92.546438 320.4 
L 92.736955 320.4 
L 92.736955 320.4 
L 92.546438 320.4 
z
" style="fill:#1e90ff;opacity:0.8;"/>
   </g>
   <g id="patch_187">
    <path clip-path="url(#pe3ba84b29c)" d="M 92.736955 320.4 
L 92.927472 320.4 
L 92.927472 320.4 
L 92.736955 320.4 
z
" style="fill:#1e90ff;opacity:0.8;"/>
   </g>
   <g id="patch_188">
    <path clip-path="url(#pe3ba84b29c)" d="M 92.927472 320.4 
L 93.117989 320.4 
L 93.117989 320.4 
L 92.927472 320.4 
z
" style="fill:#1e90ff;opacity:0.8;"/>
   </g>
   <g id="patch_189">
    <path clip-path="url(#pe3ba84b29c)" d="M 93.117989 320.4 
L 93.308506 320.4 
L 93.308506 320.4 
L 93.117989 320.4 
z
" style="fill:#1e90ff;opacity:0.8;"/>
   </g>
   <g id="patch_190">
    <path clip-path="url(#pe3ba84b29c)" d="M 93.308506 320.4 
L 93.499023 320.4 
L 93.499023 320.4 
L 93.308506 320.4 
z
" style="fill:#1e90ff;opacity:0.8;"/>
   </g>
   <g id="patch_191">
    <path clip-path="url(#pe3ba84b29c)" d="M 93.499023 320.4 
L 93.68954 320.4 
L 93.68954 320.4 
L 93.499023 320.4 
z
" style="fill:#1e90ff;opacity:0.8;"/>
   </g>
   <g id="patch_192">
    <path clip-path="url(#pe3ba84b29c)" d="M 93.68954 320.4 
L 93.880057 320.4 
L 93.880057 320.4 
L 93.68954 320.4 
z
" style="fill:#1e90ff;opacity:0.8;"/>
   </g>
   <g id="patch_193">
    <path clip-path="url(#pe3ba84b29c)" d="M 93.880057 320.4 
L 94.070574 320.4 
L 94.070574 320.4 
L 93.880057 320.4 
z
" style="fill:#1e90ff;opacity:0.8;"/>
   </g>
   <g id="patch_194">
    <path clip-path="url(#pe3ba84b29c)" d="M 94.070574 320.4 
L 94.261091 320.4 
L 94.261091 320.4 
L 94.070574 320.4 
z
" style="fill:#1e90ff;opacity:0.8;"/>
   </g>
   <g id="patch_195">
    <path clip-path="url(#pe3ba84b29c)" d="M 94.261091 320.4 
L 94.451608 320.4 
L 94.451608 320.4 
L 94.261091 320.4 
z
" style="fill:#1e90ff;opacity:0.8;"/>
   </g>
   <g id="patch_196">
    <path clip-path="url(#pe3ba84b29c)" d="M 94.451608 320.4 
L 94.642125 320.4 
L 94.642125 320.4 
L 94.451608 320.4 
z
" style="fill:#1e90ff;opacity:0.8;"/>
   </g>
   <g id="patch_197">
    <path clip-path="url(#pe3ba84b29c)" d="M 94.642125 320.4 
L 94.832642 320.4 
L 94.832642 320.4 
L 94.642125 320.4 
z
" style="fill:#1e90ff;opacity:0.8;"/>
   </g>
   <g id="patch_198">
    <path clip-path="url(#pe3ba84b29c)" d="M 94.832642 320.4 
L 95.023159 320.4 
L 95.023159 320.4 
L 94.832642 320.4 
z
" style="fill:#1e90ff;opacity:0.8;"/>
   </g>
   <g id="patch_199">
    <path clip-path="url(#pe3ba84b29c)" d="M 95.023159 320.4 
L 95.213676 320.4 
L 95.213676 320.4 
L 95.023159 320.4 
z
" style="fill:#1e90ff;opacity:0.8;"/>
   </g>
   <g id="patch_200">
    <path clip-path="url(#pe3ba84b29c)" d="M 95.213676 320.4 
L 95.404193 320.4 
L 95.404193 320.4 
L 95.213676 320.4 
z
" style="fill:#1e90ff;opacity:0.8;"/>
   </g>
   <g id="patch_201">
    <path clip-path="url(#pe3ba84b29c)" d="M 95.404193 320.4 
L 95.59471 320.4 
L 95.59471 320.4 
L 95.404193 320.4 
z
" style="fill:#1e90ff;opacity:0.8;"/>
   </g>
   <g id="patch_202">
    <path clip-path="url(#pe3ba84b29c)" d="M 95.59471 320.4 
L 95.785227 320.4 
L 95.785227 56.4 
L 95.59471 56.4 
z
" style="fill:#1e90ff;opacity:0.8;"/>
   </g>
   <g id="matplotlib.axis_1">
    <g id="xtick_1">
     <g id="line2d_1">
      <defs>
       <path d="M 0 0 
L 0 -10 
" id="mf4ce95ef34" style="stroke:#000000;stroke-width:0.8;"/>
      </defs>
      <g>
       <use style="stroke:#000000;stroke-width:0.8;" x="85.09233" xlink:href="#mf4ce95ef34" y="320.4"/>
      </g>
     </g>
     <g id="text_1">
      <!-- 1.5 -->
      <g transform="translate(77.140768 331.498438)scale(0.1 -0.1)">
       <defs>
        <path d="M 12.40625 8.296875 
L 28.515625 8.296875 
L 28.515625 63.921875 
L 10.984375 60.40625 
L 10.984375 69.390625 
L 28.421875 72.90625 
L 38.28125 72.90625 
L 38.28125 8.296875 
L 54.390625 8.296875 
L 54.390625 0 
L 12.40625 0 
z
" id="DejaVuSans-49"/>
        <path d="M 10.6875 12.40625 
L 21 12.40625 
L 21 0 
L 10.6875 0 
z
" id="DejaVuSans-46"/>
        <path d="M 10.796875 72.90625 
L 49.515625 72.90625 
L 49.515625 64.59375 
L 19.828125 64.59375 
L 19.828125 46.734375 
Q 21.96875 47.46875 24.109375 47.828125 
Q 26.265625 48.1875 28.421875 48.1875 
Q 40.625 48.1875 47.75 41.5 
Q 54.890625 34.8125 54.890625 23.390625 
Q 54.890625 11.625 47.5625 5.09375 
Q 40.234375 -1.421875 26.90625 -1.421875 
Q 22.3125 -1.421875 17.546875 -0.640625 
Q 12.796875 0.140625 7.71875 1.703125 
L 7.71875 11.625 
Q 12.109375 9.234375 16.796875 8.0625 
Q 21.484375 6.890625 26.703125 6.890625 
Q 35.15625 6.890625 40.078125 11.328125 
Q 45.015625 15.765625 45.015625 23.390625 
Q 45.015625 31 40.078125 35.4375 
Q 35.15625 39.890625 26.703125 39.890625 
Q 22.75 39.890625 18.8125 39.015625 
Q 14.890625 38.140625 10.796875 36.28125 
z
" id="DejaVuSans-53"/>
       </defs>
       <use xlink:href="#DejaVuSans-49"/>
       <use x="63.623047" xlink:href="#DejaVuSans-46"/>
       <use x="95.410156" xlink:href="#DejaVuSans-53"/>
      </g>
     </g>
    </g>
    <g id="xtick_2">
     <g id="line2d_2">
      <g>
       <use style="stroke:#000000;stroke-width:0.8;" x="130.3375" xlink:href="#mf4ce95ef34" y="320.4"/>
      </g>
     </g>
     <g id="text_2">
      <!-- 2.0 -->
      <g transform="translate(122.385938 331.498438)scale(0.1 -0.1)">
       <defs>
        <path d="M 19.1875 8.296875 
L 53.609375 8.296875 
L 53.609375 0 
L 7.328125 0 
L 7.328125 8.296875 
Q 12.9375 14.109375 22.625 23.890625 
Q 32.328125 33.6875 34.8125 36.53125 
Q 39.546875 41.84375 41.421875 45.53125 
Q 43.3125 49.21875 43.3125 52.78125 
Q 43.3125 58.59375 39.234375 62.25 
Q 35.15625 65.921875 28.609375 65.921875 
Q 23.96875 65.921875 18.8125 64.3125 
Q 13.671875 62.703125 7.8125 59.421875 
L 7.8125 69.390625 
Q 13.765625 71.78125 18.9375 73 
Q 24.125 74.21875 28.421875 74.21875 
Q 39.75 74.21875 46.484375 68.546875 
Q 53.21875 62.890625 53.21875 53.421875 
Q 53.21875 48.921875 51.53125 44.890625 
Q 49.859375 40.875 45.40625 35.40625 
Q 44.1875 33.984375 37.640625 27.21875 
Q 31.109375 20.453125 19.1875 8.296875 
z
" id="DejaVuSans-50"/>
        <path d="M 31.78125 66.40625 
Q 24.171875 66.40625 20.328125 58.90625 
Q 16.5 51.421875 16.5 36.375 
Q 16.5 21.390625 20.328125 13.890625 
Q 24.171875 6.390625 31.78125 6.390625 
Q 39.453125 6.390625 43.28125 13.890625 
Q 47.125 21.390625 47.125 36.375 
Q 47.125 51.421875 43.28125 58.90625 
Q 39.453125 66.40625 31.78125 66.40625 
z
M 31.78125 74.21875 
Q 44.046875 74.21875 50.515625 64.515625 
Q 56.984375 54.828125 56.984375 36.375 
Q 56.984375 17.96875 50.515625 8.265625 
Q 44.046875 -1.421875 31.78125 -1.421875 
Q 19.53125 -1.421875 13.0625 8.265625 
Q 6.59375 17.96875 6.59375 36.375 
Q 6.59375 54.828125 13.0625 64.515625 
Q 19.53125 74.21875 31.78125 74.21875 
z
" id="DejaVuSans-48"/>
       </defs>
       <use xlink:href="#DejaVuSans-50"/>
       <use x="63.623047" xlink:href="#DejaVuSans-46"/>
       <use x="95.410156" xlink:href="#DejaVuSans-48"/>
      </g>
     </g>
    </g>
    <g id="xtick_3">
     <g id="line2d_3">
      <g>
       <use style="stroke:#000000;stroke-width:0.8;" x="175.582671" xlink:href="#mf4ce95ef34" y="320.4"/>
      </g>
     </g>
     <g id="text_3">
      <!-- 2.5 -->
      <g transform="translate(167.631108 331.498438)scale(0.1 -0.1)">
       <use xlink:href="#DejaVuSans-50"/>
       <use x="63.623047" xlink:href="#DejaVuSans-46"/>
       <use x="95.410156" xlink:href="#DejaVuSans-53"/>
      </g>
     </g>
    </g>
    <g id="xtick_4">
     <g id="line2d_4">
      <g>
       <use style="stroke:#000000;stroke-width:0.8;" x="220.827841" xlink:href="#mf4ce95ef34" y="320.4"/>
      </g>
     </g>
     <g id="text_4">
      <!-- 3.0 -->
      <g transform="translate(212.876279 331.498438)scale(0.1 -0.1)">
       <defs>
        <path d="M 40.578125 39.3125 
Q 47.65625 37.796875 51.625 33 
Q 55.609375 28.21875 55.609375 21.1875 
Q 55.609375 10.40625 48.1875 4.484375 
Q 40.765625 -1.421875 27.09375 -1.421875 
Q 22.515625 -1.421875 17.65625 -0.515625 
Q 12.796875 0.390625 7.625 2.203125 
L 7.625 11.71875 
Q 11.71875 9.328125 16.59375 8.109375 
Q 21.484375 6.890625 26.8125 6.890625 
Q 36.078125 6.890625 40.9375 10.546875 
Q 45.796875 14.203125 45.796875 21.1875 
Q 45.796875 27.640625 41.28125 31.265625 
Q 36.765625 34.90625 28.71875 34.90625 
L 20.21875 34.90625 
L 20.21875 43.015625 
L 29.109375 43.015625 
Q 36.375 43.015625 40.234375 45.921875 
Q 44.09375 48.828125 44.09375 54.296875 
Q 44.09375 59.90625 40.109375 62.90625 
Q 36.140625 65.921875 28.71875 65.921875 
Q 24.65625 65.921875 20.015625 65.03125 
Q 15.375 64.15625 9.8125 62.3125 
L 9.8125 71.09375 
Q 15.4375 72.65625 20.34375 73.4375 
Q 25.25 74.21875 29.59375 74.21875 
Q 40.828125 74.21875 47.359375 69.109375 
Q 53.90625 64.015625 53.90625 55.328125 
Q 53.90625 49.265625 50.4375 45.09375 
Q 46.96875 40.921875 40.578125 39.3125 
z
" id="DejaVuSans-51"/>
       </defs>
       <use xlink:href="#DejaVuSans-51"/>
       <use x="63.623047" xlink:href="#DejaVuSans-46"/>
       <use x="95.410156" xlink:href="#DejaVuSans-48"/>
      </g>
     </g>
    </g>
    <g id="xtick_5">
     <g id="line2d_5">
      <g>
       <use style="stroke:#000000;stroke-width:0.8;" x="266.073011" xlink:href="#mf4ce95ef34" y="320.4"/>
      </g>
     </g>
     <g id="text_5">
      <!-- 3.5 -->
      <g transform="translate(258.121449 331.498438)scale(0.1 -0.1)">
       <use xlink:href="#DejaVuSans-51"/>
       <use x="63.623047" xlink:href="#DejaVuSans-46"/>
       <use x="95.410156" xlink:href="#DejaVuSans-53"/>
      </g>
     </g>
    </g>
    <g id="xtick_6">
     <g id="line2d_6">
      <g>
       <use style="stroke:#000000;stroke-width:0.8;" x="311.318182" xlink:href="#mf4ce95ef34" y="320.4"/>
      </g>
     </g>
     <g id="text_6">
      <!-- 4.0 -->
      <g transform="translate(303.366619 331.498438)scale(0.1 -0.1)">
       <defs>
        <path d="M 37.796875 64.3125 
L 12.890625 25.390625 
L 37.796875 25.390625 
z
M 35.203125 72.90625 
L 47.609375 72.90625 
L 47.609375 25.390625 
L 58.015625 25.390625 
L 58.015625 17.1875 
L 47.609375 17.1875 
L 47.609375 0 
L 37.796875 0 
L 37.796875 17.1875 
L 4.890625 17.1875 
L 4.890625 26.703125 
z
" id="DejaVuSans-52"/>
       </defs>
       <use xlink:href="#DejaVuSans-52"/>
       <use x="63.623047" xlink:href="#DejaVuSans-46"/>
       <use x="95.410156" xlink:href="#DejaVuSans-48"/>
      </g>
     </g>
    </g>
    <g id="xtick_7">
     <g id="line2d_7">
      <defs>
       <path d="M 0 0 
L 0 -5 
" id="m8d0d16a88b" style="stroke:#000000;stroke-width:0.6;"/>
      </defs>
      <g>
       <use style="stroke:#000000;stroke-width:0.6;" x="48.896194" xlink:href="#m8d0d16a88b" y="320.4"/>
      </g>
     </g>
    </g>
    <g id="xtick_8">
     <g id="line2d_8">
      <g>
       <use style="stroke:#000000;stroke-width:0.6;" x="57.945228" xlink:href="#m8d0d16a88b" y="320.4"/>
      </g>
     </g>
    </g>
    <g id="xtick_9">
     <g id="line2d_9">
      <g>
       <use style="stroke:#000000;stroke-width:0.6;" x="66.994262" xlink:href="#m8d0d16a88b" y="320.4"/>
      </g>
     </g>
    </g>
    <g id="xtick_10">
     <g id="line2d_10">
      <g>
       <use style="stroke:#000000;stroke-width:0.6;" x="76.043296" xlink:href="#m8d0d16a88b" y="320.4"/>
      </g>
     </g>
    </g>
    <g id="xtick_11">
     <g id="line2d_11">
      <g>
       <use style="stroke:#000000;stroke-width:0.6;" x="94.141364" xlink:href="#m8d0d16a88b" y="320.4"/>
      </g>
     </g>
    </g>
    <g id="xtick_12">
     <g id="line2d_12">
      <g>
       <use style="stroke:#000000;stroke-width:0.6;" x="103.190398" xlink:href="#m8d0d16a88b" y="320.4"/>
      </g>
     </g>
    </g>
    <g id="xtick_13">
     <g id="line2d_13">
      <g>
       <use style="stroke:#000000;stroke-width:0.6;" x="112.239432" xlink:href="#m8d0d16a88b" y="320.4"/>
      </g>
     </g>
    </g>
    <g id="xtick_14">
     <g id="line2d_14">
      <g>
       <use style="stroke:#000000;stroke-width:0.6;" x="121.288466" xlink:href="#m8d0d16a88b" y="320.4"/>
      </g>
     </g>
    </g>
    <g id="xtick_15">
     <g id="line2d_15">
      <g>
       <use style="stroke:#000000;stroke-width:0.6;" x="139.386534" xlink:href="#m8d0d16a88b" y="320.4"/>
      </g>
     </g>
    </g>
    <g id="xtick_16">
     <g id="line2d_16">
      <g>
       <use style="stroke:#000000;stroke-width:0.6;" x="148.435569" xlink:href="#m8d0d16a88b" y="320.4"/>
      </g>
     </g>
    </g>
    <g id="xtick_17">
     <g id="line2d_17">
      <g>
       <use style="stroke:#000000;stroke-width:0.6;" x="157.484603" xlink:href="#m8d0d16a88b" y="320.4"/>
      </g>
     </g>
    </g>
    <g id="xtick_18">
     <g id="line2d_18">
      <g>
       <use style="stroke:#000000;stroke-width:0.6;" x="166.533637" xlink:href="#m8d0d16a88b" y="320.4"/>
      </g>
     </g>
    </g>
    <g id="xtick_19">
     <g id="line2d_19">
      <g>
       <use style="stroke:#000000;stroke-width:0.6;" x="184.631705" xlink:href="#m8d0d16a88b" y="320.4"/>
      </g>
     </g>
    </g>
    <g id="xtick_20">
     <g id="line2d_20">
      <g>
       <use style="stroke:#000000;stroke-width:0.6;" x="193.680739" xlink:href="#m8d0d16a88b" y="320.4"/>
      </g>
     </g>
    </g>
    <g id="xtick_21">
     <g id="line2d_21">
      <g>
       <use style="stroke:#000000;stroke-width:0.6;" x="202.729773" xlink:href="#m8d0d16a88b" y="320.4"/>
      </g>
     </g>
    </g>
    <g id="xtick_22">
     <g id="line2d_22">
      <g>
       <use style="stroke:#000000;stroke-width:0.6;" x="211.778807" xlink:href="#m8d0d16a88b" y="320.4"/>
      </g>
     </g>
    </g>
    <g id="xtick_23">
     <g id="line2d_23">
      <g>
       <use style="stroke:#000000;stroke-width:0.6;" x="229.876875" xlink:href="#m8d0d16a88b" y="320.4"/>
      </g>
     </g>
    </g>
    <g id="xtick_24">
     <g id="line2d_24">
      <g>
       <use style="stroke:#000000;stroke-width:0.6;" x="238.925909" xlink:href="#m8d0d16a88b" y="320.4"/>
      </g>
     </g>
    </g>
    <g id="xtick_25">
     <g id="line2d_25">
      <g>
       <use style="stroke:#000000;stroke-width:0.6;" x="247.974943" xlink:href="#m8d0d16a88b" y="320.4"/>
      </g>
     </g>
    </g>
    <g id="xtick_26">
     <g id="line2d_26">
      <g>
       <use style="stroke:#000000;stroke-width:0.6;" x="257.023977" xlink:href="#m8d0d16a88b" y="320.4"/>
      </g>
     </g>
    </g>
    <g id="xtick_27">
     <g id="line2d_27">
      <g>
       <use style="stroke:#000000;stroke-width:0.6;" x="275.122046" xlink:href="#m8d0d16a88b" y="320.4"/>
      </g>
     </g>
    </g>
    <g id="xtick_28">
     <g id="line2d_28">
      <g>
       <use style="stroke:#000000;stroke-width:0.6;" x="284.17108" xlink:href="#m8d0d16a88b" y="320.4"/>
      </g>
     </g>
    </g>
    <g id="xtick_29">
     <g id="line2d_29">
      <g>
       <use style="stroke:#000000;stroke-width:0.6;" x="293.220114" xlink:href="#m8d0d16a88b" y="320.4"/>
      </g>
     </g>
    </g>
    <g id="xtick_30">
     <g id="line2d_30">
      <g>
       <use style="stroke:#000000;stroke-width:0.6;" x="302.269148" xlink:href="#m8d0d16a88b" y="320.4"/>
      </g>
     </g>
    </g>
    <g id="xtick_31">
     <g id="line2d_31">
      <g>
       <use style="stroke:#000000;stroke-width:0.6;" x="320.367216" xlink:href="#m8d0d16a88b" y="320.4"/>
      </g>
     </g>
    </g>
    <g id="text_7">
     <!-- Distance in  -->
     <g transform="translate(151.48125 345.176562)scale(0.1 -0.1)">
      <defs>
       <path d="M 19.671875 64.796875 
L 19.671875 8.109375 
L 31.59375 8.109375 
Q 46.6875 8.109375 53.6875 14.9375 
Q 60.6875 21.78125 60.6875 36.53125 
Q 60.6875 51.171875 53.6875 57.984375 
Q 46.6875 64.796875 31.59375 64.796875 
z
M 9.8125 72.90625 
L 30.078125 72.90625 
Q 51.265625 72.90625 61.171875 64.09375 
Q 71.09375 55.28125 71.09375 36.53125 
Q 71.09375 17.671875 61.125 8.828125 
Q 51.171875 0 30.078125 0 
L 9.8125 0 
z
" id="DejaVuSans-68"/>
       <path d="M 9.421875 54.6875 
L 18.40625 54.6875 
L 18.40625 0 
L 9.421875 0 
z
M 9.421875 75.984375 
L 18.40625 75.984375 
L 18.40625 64.59375 
L 9.421875 64.59375 
z
" id="DejaVuSans-105"/>
       <path d="M 44.28125 53.078125 
L 44.28125 44.578125 
Q 40.484375 46.53125 36.375 47.5 
Q 32.28125 48.484375 27.875 48.484375 
Q 21.1875 48.484375 17.84375 46.4375 
Q 14.5 44.390625 14.5 40.28125 
Q 14.5 37.15625 16.890625 35.375 
Q 19.28125 33.59375 26.515625 31.984375 
L 29.59375 31.296875 
Q 39.15625 29.25 43.1875 25.515625 
Q 47.21875 21.78125 47.21875 15.09375 
Q 47.21875 7.46875 41.1875 3.015625 
Q 35.15625 -1.421875 24.609375 -1.421875 
Q 20.21875 -1.421875 15.453125 -0.5625 
Q 10.6875 0.296875 5.421875 2 
L 5.421875 11.28125 
Q 10.40625 8.6875 15.234375 7.390625 
Q 20.0625 6.109375 24.8125 6.109375 
Q 31.15625 6.109375 34.5625 8.28125 
Q 37.984375 10.453125 37.984375 14.40625 
Q 37.984375 18.0625 35.515625 20.015625 
Q 33.0625 21.96875 24.703125 23.78125 
L 21.578125 24.515625 
Q 13.234375 26.265625 9.515625 29.90625 
Q 5.8125 33.546875 5.8125 39.890625 
Q 5.8125 47.609375 11.28125 51.796875 
Q 16.75 56 26.8125 56 
Q 31.78125 56 36.171875 55.265625 
Q 40.578125 54.546875 44.28125 53.078125 
z
" id="DejaVuSans-115"/>
       <path d="M 18.3125 70.21875 
L 18.3125 54.6875 
L 36.8125 54.6875 
L 36.8125 47.703125 
L 18.3125 47.703125 
L 18.3125 18.015625 
Q 18.3125 11.328125 20.140625 9.421875 
Q 21.96875 7.515625 27.59375 7.515625 
L 36.8125 7.515625 
L 36.8125 0 
L 27.59375 0 
Q 17.1875 0 13.234375 3.875 
Q 9.28125 7.765625 9.28125 18.015625 
L 9.28125 47.703125 
L 2.6875 47.703125 
L 2.6875 54.6875 
L 9.28125 54.6875 
L 9.28125 70.21875 
z
" id="DejaVuSans-116"/>
       <path d="M 34.28125 27.484375 
Q 23.390625 27.484375 19.1875 25 
Q 14.984375 22.515625 14.984375 16.5 
Q 14.984375 11.71875 18.140625 8.90625 
Q 21.296875 6.109375 26.703125 6.109375 
Q 34.1875 6.109375 38.703125 11.40625 
Q 43.21875 16.703125 43.21875 25.484375 
L 43.21875 27.484375 
z
M 52.203125 31.203125 
L 52.203125 0 
L 43.21875 0 
L 43.21875 8.296875 
Q 40.140625 3.328125 35.546875 0.953125 
Q 30.953125 -1.421875 24.3125 -1.421875 
Q 15.921875 -1.421875 10.953125 3.296875 
Q 6 8.015625 6 15.921875 
Q 6 25.140625 12.171875 29.828125 
Q 18.359375 34.515625 30.609375 34.515625 
L 43.21875 34.515625 
L 43.21875 35.40625 
Q 43.21875 41.609375 39.140625 45 
Q 35.0625 48.390625 27.6875 48.390625 
Q 23 48.390625 18.546875 47.265625 
Q 14.109375 46.140625 10.015625 43.890625 
L 10.015625 52.203125 
Q 14.9375 54.109375 19.578125 55.046875 
Q 24.21875 56 28.609375 56 
Q 40.484375 56 46.34375 49.84375 
Q 52.203125 43.703125 52.203125 31.203125 
z
" id="DejaVuSans-97"/>
       <path d="M 54.890625 33.015625 
L 54.890625 0 
L 45.90625 0 
L 45.90625 32.71875 
Q 45.90625 40.484375 42.875 44.328125 
Q 39.84375 48.1875 33.796875 48.1875 
Q 26.515625 48.1875 22.3125 43.546875 
Q 18.109375 38.921875 18.109375 30.90625 
L 18.109375 0 
L 9.078125 0 
L 9.078125 54.6875 
L 18.109375 54.6875 
L 18.109375 46.1875 
Q 21.34375 51.125 25.703125 53.5625 
Q 30.078125 56 35.796875 56 
Q 45.21875 56 50.046875 50.171875 
Q 54.890625 44.34375 54.890625 33.015625 
z
" id="DejaVuSans-110"/>
       <path d="M 48.78125 52.59375 
L 48.78125 44.1875 
Q 44.96875 46.296875 41.140625 47.34375 
Q 37.3125 48.390625 33.40625 48.390625 
Q 24.65625 48.390625 19.8125 42.84375 
Q 14.984375 37.3125 14.984375 27.296875 
Q 14.984375 17.28125 19.8125 11.734375 
Q 24.65625 6.203125 33.40625 6.203125 
Q 37.3125 6.203125 41.140625 7.25 
Q 44.96875 8.296875 48.78125 10.40625 
L 48.78125 2.09375 
Q 45.015625 0.34375 40.984375 -0.53125 
Q 36.96875 -1.421875 32.421875 -1.421875 
Q 20.0625 -1.421875 12.78125 6.34375 
Q 5.515625 14.109375 5.515625 27.296875 
Q 5.515625 40.671875 12.859375 48.328125 
Q 20.21875 56 33.015625 56 
Q 37.15625 56 41.109375 55.140625 
Q 45.0625 54.296875 48.78125 52.59375 
z
" id="DejaVuSans-99"/>
       <path d="M 56.203125 29.59375 
L 56.203125 25.203125 
L 14.890625 25.203125 
Q 15.484375 15.921875 20.484375 11.0625 
Q 25.484375 6.203125 34.421875 6.203125 
Q 39.59375 6.203125 44.453125 7.46875 
Q 49.3125 8.734375 54.109375 11.28125 
L 54.109375 2.78125 
Q 49.265625 0.734375 44.1875 -0.34375 
Q 39.109375 -1.421875 33.890625 -1.421875 
Q 20.796875 -1.421875 13.15625 6.1875 
Q 5.515625 13.8125 5.515625 26.8125 
Q 5.515625 40.234375 12.765625 48.109375 
Q 20.015625 56 32.328125 56 
Q 43.359375 56 49.78125 48.890625 
Q 56.203125 41.796875 56.203125 29.59375 
z
M 47.21875 32.234375 
Q 47.125 39.59375 43.09375 43.984375 
Q 39.0625 48.390625 32.421875 48.390625 
Q 24.90625 48.390625 20.390625 44.140625 
Q 15.875 39.890625 15.1875 32.171875 
z
" id="DejaVuSans-101"/>
       <path id="DejaVuSans-32"/>
       <path d="M 41.609375 79.390625 
Q 41.609375 82.46875 39.421875 84.640625 
Q 37.25 86.8125 34.1875 86.8125 
Q 31.0625 86.8125 28.9375 84.6875 
Q 26.8125 82.5625 26.8125 79.390625 
Q 26.8125 76.3125 28.953125 74.15625 
Q 31.109375 72.015625 34.1875 72.015625 
Q 37.25 72.015625 39.421875 74.15625 
Q 41.609375 76.3125 41.609375 79.390625 
z
M 34.1875 63.1875 
L 20.90625 26.90625 
L 47.515625 26.90625 
z
M 26.8125 68.21875 
Q 23.828125 70.21875 22.3125 73.015625 
Q 20.796875 75.828125 20.796875 79.390625 
Q 20.796875 85.015625 24.671875 88.921875 
Q 28.5625 92.828125 34.1875 92.828125 
Q 39.75 92.828125 43.671875 88.890625 
Q 47.609375 84.96875 47.609375 79.390625 
Q 47.609375 75.984375 46.0625 73.09375 
Q 44.53125 70.21875 41.609375 68.21875 
L 67.578125 0 
L 57.328125 0 
L 50.6875 18.703125 
L 17.828125 18.703125 
L 11.1875 0 
L 0.78125 0 
z
" id="DejaVuSans-197"/>
      </defs>
      <use xlink:href="#DejaVuSans-68"/>
      <use x="77.001953" xlink:href="#DejaVuSans-105"/>
      <use x="104.785156" xlink:href="#DejaVuSans-115"/>
      <use x="156.884766" xlink:href="#DejaVuSans-116"/>
      <use x="196.09375" xlink:href="#DejaVuSans-97"/>
      <use x="257.373047" xlink:href="#DejaVuSans-110"/>
      <use x="320.751953" xlink:href="#DejaVuSans-99"/>
      <use x="375.732422" xlink:href="#DejaVuSans-101"/>
      <use x="437.255859" xlink:href="#DejaVuSans-32"/>
      <use x="469.042969" xlink:href="#DejaVuSans-105"/>
      <use x="496.826172" xlink:href="#DejaVuSans-110"/>
      <use x="560.205078" xlink:href="#DejaVuSans-32"/>
      <use x="591.992188" xlink:href="#DejaVuSans-197"/>
     </g>
    </g>
   </g>
   <g id="matplotlib.axis_2">
    <g id="ytick_1">
     <g id="line2d_32">
      <defs>
       <path d="M 0 0 
L 10 0 
" id="m29f8635eee" style="stroke:#000000;stroke-width:0.8;"/>
      </defs>
      <g>
       <use style="stroke:#000000;stroke-width:0.8;" x="45" xlink:href="#m29f8635eee" y="320.4"/>
      </g>
     </g>
     <g id="text_8">
      <!-- 0 -->
      <g transform="translate(35.1375 324.199219)scale(0.1 -0.1)">
       <use xlink:href="#DejaVuSans-48"/>
      </g>
     </g>
    </g>
    <g id="ytick_2">
     <g id="line2d_33">
      <g>
       <use style="stroke:#000000;stroke-width:0.8;" x="45" xlink:href="#m29f8635eee" y="264.817824"/>
      </g>
     </g>
     <g id="text_9">
      <!-- 50 -->
      <g transform="translate(28.775 268.617043)scale(0.1 -0.1)">
       <use xlink:href="#DejaVuSans-53"/>
       <use x="63.623047" xlink:href="#DejaVuSans-48"/>
      </g>
     </g>
    </g>
    <g id="ytick_3">
     <g id="line2d_34">
      <g>
       <use style="stroke:#000000;stroke-width:0.8;" x="45" xlink:href="#m29f8635eee" y="209.235648"/>
      </g>
     </g>
     <g id="text_10">
      <!-- 100 -->
      <g transform="translate(22.4125 213.034867)scale(0.1 -0.1)">
       <use xlink:href="#DejaVuSans-49"/>
       <use x="63.623047" xlink:href="#DejaVuSans-48"/>
       <use x="127.246094" xlink:href="#DejaVuSans-48"/>
      </g>
     </g>
    </g>
    <g id="ytick_4">
     <g id="line2d_35">
      <g>
       <use style="stroke:#000000;stroke-width:0.8;" x="45" xlink:href="#m29f8635eee" y="153.653473"/>
      </g>
     </g>
     <g id="text_11">
      <!-- 150 -->
      <g transform="translate(22.4125 157.452691)scale(0.1 -0.1)">
       <use xlink:href="#DejaVuSans-49"/>
       <use x="63.623047" xlink:href="#DejaVuSans-53"/>
       <use x="127.246094" xlink:href="#DejaVuSans-48"/>
      </g>
     </g>
    </g>
    <g id="ytick_5">
     <g id="line2d_36">
      <g>
       <use style="stroke:#000000;stroke-width:0.8;" x="45" xlink:href="#m29f8635eee" y="98.071297"/>
      </g>
     </g>
     <g id="text_12">
      <!-- 200 -->
      <g transform="translate(22.4125 101.870516)scale(0.1 -0.1)">
       <use xlink:href="#DejaVuSans-50"/>
       <use x="63.623047" xlink:href="#DejaVuSans-48"/>
       <use x="127.246094" xlink:href="#DejaVuSans-48"/>
      </g>
     </g>
    </g>
    <g id="ytick_6">
     <g id="line2d_37">
      <defs>
       <path d="M 0 0 
L 5 0 
" id="mf6ae0e845c" style="stroke:#000000;stroke-width:0.6;"/>
      </defs>
      <g>
       <use style="stroke:#000000;stroke-width:0.6;" x="45" xlink:href="#mf6ae0e845c" y="309.283565"/>
      </g>
     </g>
    </g>
    <g id="ytick_7">
     <g id="line2d_38">
      <g>
       <use style="stroke:#000000;stroke-width:0.6;" x="45" xlink:href="#mf6ae0e845c" y="298.16713"/>
      </g>
     </g>
    </g>
    <g id="ytick_8">
     <g id="line2d_39">
      <g>
       <use style="stroke:#000000;stroke-width:0.6;" x="45" xlink:href="#mf6ae0e845c" y="287.050695"/>
      </g>
     </g>
    </g>
    <g id="ytick_9">
     <g id="line2d_40">
      <g>
       <use style="stroke:#000000;stroke-width:0.6;" x="45" xlink:href="#mf6ae0e845c" y="275.934259"/>
      </g>
     </g>
    </g>
    <g id="ytick_10">
     <g id="line2d_41">
      <g>
       <use style="stroke:#000000;stroke-width:0.6;" x="45" xlink:href="#mf6ae0e845c" y="253.701389"/>
      </g>
     </g>
    </g>
    <g id="ytick_11">
     <g id="line2d_42">
      <g>
       <use style="stroke:#000000;stroke-width:0.6;" x="45" xlink:href="#mf6ae0e845c" y="242.584954"/>
      </g>
     </g>
    </g>
    <g id="ytick_12">
     <g id="line2d_43">
      <g>
       <use style="stroke:#000000;stroke-width:0.6;" x="45" xlink:href="#mf6ae0e845c" y="231.468519"/>
      </g>
     </g>
    </g>
    <g id="ytick_13">
     <g id="line2d_44">
      <g>
       <use style="stroke:#000000;stroke-width:0.6;" x="45" xlink:href="#mf6ae0e845c" y="220.352084"/>
      </g>
     </g>
    </g>
    <g id="ytick_14">
     <g id="line2d_45">
      <g>
       <use style="stroke:#000000;stroke-width:0.6;" x="45" xlink:href="#mf6ae0e845c" y="198.119213"/>
      </g>
     </g>
    </g>
    <g id="ytick_15">
     <g id="line2d_46">
      <g>
       <use style="stroke:#000000;stroke-width:0.6;" x="45" xlink:href="#mf6ae0e845c" y="187.002778"/>
      </g>
     </g>
    </g>
    <g id="ytick_16">
     <g id="line2d_47">
      <g>
       <use style="stroke:#000000;stroke-width:0.6;" x="45" xlink:href="#mf6ae0e845c" y="175.886343"/>
      </g>
     </g>
    </g>
    <g id="ytick_17">
     <g id="line2d_48">
      <g>
       <use style="stroke:#000000;stroke-width:0.6;" x="45" xlink:href="#mf6ae0e845c" y="164.769908"/>
      </g>
     </g>
    </g>
    <g id="ytick_18">
     <g id="line2d_49">
      <g>
       <use style="stroke:#000000;stroke-width:0.6;" x="45" xlink:href="#mf6ae0e845c" y="142.537038"/>
      </g>
     </g>
    </g>
    <g id="ytick_19">
     <g id="line2d_50">
      <g>
       <use style="stroke:#000000;stroke-width:0.6;" x="45" xlink:href="#mf6ae0e845c" y="131.420602"/>
      </g>
     </g>
    </g>
    <g id="ytick_20">
     <g id="line2d_51">
      <g>
       <use style="stroke:#000000;stroke-width:0.6;" x="45" xlink:href="#mf6ae0e845c" y="120.304167"/>
      </g>
     </g>
    </g>
    <g id="ytick_21">
     <g id="line2d_52">
      <g>
       <use style="stroke:#000000;stroke-width:0.6;" x="45" xlink:href="#mf6ae0e845c" y="109.187732"/>
      </g>
     </g>
    </g>
    <g id="ytick_22">
     <g id="line2d_53">
      <g>
       <use style="stroke:#000000;stroke-width:0.6;" x="45" xlink:href="#mf6ae0e845c" y="86.954862"/>
      </g>
     </g>
    </g>
    <g id="ytick_23">
     <g id="line2d_54">
      <g>
       <use style="stroke:#000000;stroke-width:0.6;" x="45" xlink:href="#mf6ae0e845c" y="75.838427"/>
      </g>
     </g>
    </g>
    <g id="ytick_24">
     <g id="line2d_55">
      <g>
       <use style="stroke:#000000;stroke-width:0.6;" x="45" xlink:href="#mf6ae0e845c" y="64.721992"/>
      </g>
     </g>
    </g>
    <g id="ytick_25">
     <g id="line2d_56">
      <g>
       <use style="stroke:#000000;stroke-width:0.6;" x="45" xlink:href="#mf6ae0e845c" y="53.605556"/>
      </g>
     </g>
    </g>
    <g id="text_13">
     <!-- Probability -->
     <g transform="translate(16.332812 208.228906)rotate(-90)scale(0.1 -0.1)">
      <defs>
       <path d="M 19.671875 64.796875 
L 19.671875 37.40625 
L 32.078125 37.40625 
Q 38.96875 37.40625 42.71875 40.96875 
Q 46.484375 44.53125 46.484375 51.125 
Q 46.484375 57.671875 42.71875 61.234375 
Q 38.96875 64.796875 32.078125 64.796875 
z
M 9.8125 72.90625 
L 32.078125 72.90625 
Q 44.34375 72.90625 50.609375 67.359375 
Q 56.890625 61.8125 56.890625 51.125 
Q 56.890625 40.328125 50.609375 34.8125 
Q 44.34375 29.296875 32.078125 29.296875 
L 19.671875 29.296875 
L 19.671875 0 
L 9.8125 0 
z
" id="DejaVuSans-80"/>
       <path d="M 41.109375 46.296875 
Q 39.59375 47.171875 37.8125 47.578125 
Q 36.03125 48 33.890625 48 
Q 26.265625 48 22.1875 43.046875 
Q 18.109375 38.09375 18.109375 28.8125 
L 18.109375 0 
L 9.078125 0 
L 9.078125 54.6875 
L 18.109375 54.6875 
L 18.109375 46.1875 
Q 20.953125 51.171875 25.484375 53.578125 
Q 30.03125 56 36.53125 56 
Q 37.453125 56 38.578125 55.875 
Q 39.703125 55.765625 41.0625 55.515625 
z
" id="DejaVuSans-114"/>
       <path d="M 30.609375 48.390625 
Q 23.390625 48.390625 19.1875 42.75 
Q 14.984375 37.109375 14.984375 27.296875 
Q 14.984375 17.484375 19.15625 11.84375 
Q 23.34375 6.203125 30.609375 6.203125 
Q 37.796875 6.203125 41.984375 11.859375 
Q 46.1875 17.53125 46.1875 27.296875 
Q 46.1875 37.015625 41.984375 42.703125 
Q 37.796875 48.390625 30.609375 48.390625 
z
M 30.609375 56 
Q 42.328125 56 49.015625 48.375 
Q 55.71875 40.765625 55.71875 27.296875 
Q 55.71875 13.875 49.015625 6.21875 
Q 42.328125 -1.421875 30.609375 -1.421875 
Q 18.84375 -1.421875 12.171875 6.21875 
Q 5.515625 13.875 5.515625 27.296875 
Q 5.515625 40.765625 12.171875 48.375 
Q 18.84375 56 30.609375 56 
z
" id="DejaVuSans-111"/>
       <path d="M 48.6875 27.296875 
Q 48.6875 37.203125 44.609375 42.84375 
Q 40.53125 48.484375 33.40625 48.484375 
Q 26.265625 48.484375 22.1875 42.84375 
Q 18.109375 37.203125 18.109375 27.296875 
Q 18.109375 17.390625 22.1875 11.75 
Q 26.265625 6.109375 33.40625 6.109375 
Q 40.53125 6.109375 44.609375 11.75 
Q 48.6875 17.390625 48.6875 27.296875 
z
M 18.109375 46.390625 
Q 20.953125 51.265625 25.265625 53.625 
Q 29.59375 56 35.59375 56 
Q 45.5625 56 51.78125 48.09375 
Q 58.015625 40.1875 58.015625 27.296875 
Q 58.015625 14.40625 51.78125 6.484375 
Q 45.5625 -1.421875 35.59375 -1.421875 
Q 29.59375 -1.421875 25.265625 0.953125 
Q 20.953125 3.328125 18.109375 8.203125 
L 18.109375 0 
L 9.078125 0 
L 9.078125 75.984375 
L 18.109375 75.984375 
z
" id="DejaVuSans-98"/>
       <path d="M 9.421875 75.984375 
L 18.40625 75.984375 
L 18.40625 0 
L 9.421875 0 
z
" id="DejaVuSans-108"/>
       <path d="M 32.171875 -5.078125 
Q 28.375 -14.84375 24.75 -17.8125 
Q 21.140625 -20.796875 15.09375 -20.796875 
L 7.90625 -20.796875 
L 7.90625 -13.28125 
L 13.1875 -13.28125 
Q 16.890625 -13.28125 18.9375 -11.515625 
Q 21 -9.765625 23.484375 -3.21875 
L 25.09375 0.875 
L 2.984375 54.6875 
L 12.5 54.6875 
L 29.59375 11.921875 
L 46.6875 54.6875 
L 56.203125 54.6875 
z
" id="DejaVuSans-121"/>
      </defs>
      <use xlink:href="#DejaVuSans-80"/>
      <use x="58.552734" xlink:href="#DejaVuSans-114"/>
      <use x="97.416016" xlink:href="#DejaVuSans-111"/>
      <use x="158.597656" xlink:href="#DejaVuSans-98"/>
      <use x="222.074219" xlink:href="#DejaVuSans-97"/>
      <use x="283.353516" xlink:href="#DejaVuSans-98"/>
      <use x="346.830078" xlink:href="#DejaVuSans-105"/>
      <use x="374.613281" xlink:href="#DejaVuSans-108"/>
      <use x="402.396484" xlink:href="#DejaVuSans-105"/>
      <use x="430.179688" xlink:href="#DejaVuSans-116"/>
      <use x="469.388672" xlink:href="#DejaVuSans-121"/>
     </g>
    </g>
   </g>
   <g id="line2d_57">
    <path clip-path="url(#pe3ba84b29c)" d="M 311.318182 320.4 
L 311.318182 43.2 
" style="fill:none;stroke:#808080;stroke-linecap:square;stroke-width:1.5;"/>
   </g>
   <g id="patch_203">
    <path d="M 45 320.4 
L 45 43.2 
" style="fill:none;stroke:#000000;stroke-linecap:square;stroke-linejoin:miter;stroke-width:0.8;"/>
   </g>
   <g id="patch_204">
    <path d="M 324 320.4 
L 324 43.2 
" style="fill:none;stroke:#000000;stroke-linecap:square;stroke-linejoin:miter;stroke-width:0.8;"/>
   </g>
   <g id="patch_205">
    <path d="M 45 320.4 
L 324 320.4 
" style="fill:none;stroke:#000000;stroke-linecap:square;stroke-linejoin:miter;stroke-width:0.8;"/>
   </g>
   <g id="patch_206">
    <path d="M 45 43.2 
L 324 43.2 
" style="fill:none;stroke:#000000;stroke-linecap:square;stroke-linejoin:miter;stroke-width:0.8;"/>
   </g>
   <g id="text_14">
    <!-- Distribution of Red-Ox differences -->
    <g transform="translate(82.654688 37.2)scale(0.12 -0.12)">
     <defs>
      <path d="M 8.5 21.578125 
L 8.5 54.6875 
L 17.484375 54.6875 
L 17.484375 21.921875 
Q 17.484375 14.15625 20.5 10.265625 
Q 23.53125 6.390625 29.59375 6.390625 
Q 36.859375 6.390625 41.078125 11.03125 
Q 45.3125 15.671875 45.3125 23.6875 
L 45.3125 54.6875 
L 54.296875 54.6875 
L 54.296875 0 
L 45.3125 0 
L 45.3125 8.40625 
Q 42.046875 3.421875 37.71875 1 
Q 33.40625 -1.421875 27.6875 -1.421875 
Q 18.265625 -1.421875 13.375 4.4375 
Q 8.5 10.296875 8.5 21.578125 
z
M 31.109375 56 
z
" id="DejaVuSans-117"/>
      <path d="M 37.109375 75.984375 
L 37.109375 68.5 
L 28.515625 68.5 
Q 23.6875 68.5 21.796875 66.546875 
Q 19.921875 64.59375 19.921875 59.515625 
L 19.921875 54.6875 
L 34.71875 54.6875 
L 34.71875 47.703125 
L 19.921875 47.703125 
L 19.921875 0 
L 10.890625 0 
L 10.890625 47.703125 
L 2.296875 47.703125 
L 2.296875 54.6875 
L 10.890625 54.6875 
L 10.890625 58.5 
Q 10.890625 67.625 15.140625 71.796875 
Q 19.390625 75.984375 28.609375 75.984375 
z
" id="DejaVuSans-102"/>
      <path d="M 44.390625 34.1875 
Q 47.5625 33.109375 50.5625 29.59375 
Q 53.5625 26.078125 56.59375 19.921875 
L 66.609375 0 
L 56 0 
L 46.6875 18.703125 
Q 43.0625 26.03125 39.671875 28.421875 
Q 36.28125 30.8125 30.421875 30.8125 
L 19.671875 30.8125 
L 19.671875 0 
L 9.8125 0 
L 9.8125 72.90625 
L 32.078125 72.90625 
Q 44.578125 72.90625 50.734375 67.671875 
Q 56.890625 62.453125 56.890625 51.90625 
Q 56.890625 45.015625 53.6875 40.46875 
Q 50.484375 35.9375 44.390625 34.1875 
z
M 19.671875 64.796875 
L 19.671875 38.921875 
L 32.078125 38.921875 
Q 39.203125 38.921875 42.84375 42.21875 
Q 46.484375 45.515625 46.484375 51.90625 
Q 46.484375 58.296875 42.84375 61.546875 
Q 39.203125 64.796875 32.078125 64.796875 
z
" id="DejaVuSans-82"/>
      <path d="M 45.40625 46.390625 
L 45.40625 75.984375 
L 54.390625 75.984375 
L 54.390625 0 
L 45.40625 0 
L 45.40625 8.203125 
Q 42.578125 3.328125 38.25 0.953125 
Q 33.9375 -1.421875 27.875 -1.421875 
Q 17.96875 -1.421875 11.734375 6.484375 
Q 5.515625 14.40625 5.515625 27.296875 
Q 5.515625 40.1875 11.734375 48.09375 
Q 17.96875 56 27.875 56 
Q 33.9375 56 38.25 53.625 
Q 42.578125 51.265625 45.40625 46.390625 
z
M 14.796875 27.296875 
Q 14.796875 17.390625 18.875 11.75 
Q 22.953125 6.109375 30.078125 6.109375 
Q 37.203125 6.109375 41.296875 11.75 
Q 45.40625 17.390625 45.40625 27.296875 
Q 45.40625 37.203125 41.296875 42.84375 
Q 37.203125 48.484375 30.078125 48.484375 
Q 22.953125 48.484375 18.875 42.84375 
Q 14.796875 37.203125 14.796875 27.296875 
z
" id="DejaVuSans-100"/>
      <path d="M 4.890625 31.390625 
L 31.203125 31.390625 
L 31.203125 23.390625 
L 4.890625 23.390625 
z
" id="DejaVuSans-45"/>
      <path d="M 39.40625 66.21875 
Q 28.65625 66.21875 22.328125 58.203125 
Q 16.015625 50.203125 16.015625 36.375 
Q 16.015625 22.609375 22.328125 14.59375 
Q 28.65625 6.59375 39.40625 6.59375 
Q 50.140625 6.59375 56.421875 14.59375 
Q 62.703125 22.609375 62.703125 36.375 
Q 62.703125 50.203125 56.421875 58.203125 
Q 50.140625 66.21875 39.40625 66.21875 
z
M 39.40625 74.21875 
Q 54.734375 74.21875 63.90625 63.9375 
Q 73.09375 53.65625 73.09375 36.375 
Q 73.09375 19.140625 63.90625 8.859375 
Q 54.734375 -1.421875 39.40625 -1.421875 
Q 24.03125 -1.421875 14.8125 8.828125 
Q 5.609375 19.09375 5.609375 36.375 
Q 5.609375 53.65625 14.8125 63.9375 
Q 24.03125 74.21875 39.40625 74.21875 
z
" id="DejaVuSans-79"/>
      <path d="M 54.890625 54.6875 
L 35.109375 28.078125 
L 55.90625 0 
L 45.3125 0 
L 29.390625 21.484375 
L 13.484375 0 
L 2.875 0 
L 24.125 28.609375 
L 4.6875 54.6875 
L 15.28125 54.6875 
L 29.78125 35.203125 
L 44.28125 54.6875 
z
" id="DejaVuSans-120"/>
     </defs>
     <use xlink:href="#DejaVuSans-68"/>
     <use x="77.001953" xlink:href="#DejaVuSans-105"/>
     <use x="104.785156" xlink:href="#DejaVuSans-115"/>
     <use x="156.884766" xlink:href="#DejaVuSans-116"/>
     <use x="196.09375" xlink:href="#DejaVuSans-114"/>
     <use x="237.207031" xlink:href="#DejaVuSans-105"/>
     <use x="264.990234" xlink:href="#DejaVuSans-98"/>
     <use x="328.466797" xlink:href="#DejaVuSans-117"/>
     <use x="391.845703" xlink:href="#DejaVuSans-116"/>
     <use x="431.054688" xlink:href="#DejaVuSans-105"/>
     <use x="458.837891" xlink:href="#DejaVuSans-111"/>
     <use x="520.019531" xlink:href="#DejaVuSans-110"/>
     <use x="583.398438" xlink:href="#DejaVuSans-32"/>
     <use x="615.185547" xlink:href="#DejaVuSans-111"/>
     <use x="676.367188" xlink:href="#DejaVuSans-102"/>
     <use x="711.572266" xlink:href="#DejaVuSans-32"/>
     <use x="743.359375" xlink:href="#DejaVuSans-82"/>
     <use x="808.341797" xlink:href="#DejaVuSans-101"/>
     <use x="869.865234" xlink:href="#DejaVuSans-100"/>
     <use x="933.341797" xlink:href="#DejaVuSans-45"/>
     <use x="972.175781" xlink:href="#DejaVuSans-79"/>
     <use x="1050.886719" xlink:href="#DejaVuSans-120"/>
     <use x="1110.066406" xlink:href="#DejaVuSans-32"/>
     <use x="1141.853516" xlink:href="#DejaVuSans-100"/>
     <use x="1205.330078" xlink:href="#DejaVuSans-105"/>
     <use x="1233.113281" xlink:href="#DejaVuSans-102"/>
     <use x="1268.318359" xlink:href="#DejaVuSans-102"/>
     <use x="1303.523438" xlink:href="#DejaVuSans-101"/>
     <use x="1365.046875" xlink:href="#DejaVuSans-114"/>
     <use x="1403.910156" xlink:href="#DejaVuSans-101"/>
     <use x="1465.433594" xlink:href="#DejaVuSans-110"/>
     <use x="1528.8125" xlink:href="#DejaVuSans-99"/>
     <use x="1583.792969" xlink:href="#DejaVuSans-101"/>
     <use x="1645.316406" xlink:href="#DejaVuSans-115"/>
    </g>
   </g>
  </g>
 </g>
 <defs>
  <clipPath id="pe3ba84b29c">
   <rect height="277.2" width="279" x="45" y="43.2"/>
  </clipPath>
 </defs>
</svg>
